<?xml version="1.0" encoding="utf-8" standalone="no"?>
<!DOCTYPE svg PUBLIC "-//W3C//DTD SVG 1.1//EN"
  "http://www.w3.org/Graphics/SVG/1.1/DTD/svg11.dtd">
<svg height="174.6pt" version="1.1" viewBox="0 0 345.24 174.6" width="345.24pt" xmlns="http://www.w3.org/2000/svg" xmlns:xlink="http://www.w3.org/1999/xlink">
 <metadata>
  <rdf:RDF xmlns:cc="http://creativecommons.org/ns#" xmlns:dc="http://purl.org/dc/elements/1.1/" xmlns:rdf="http://www.w3.org/1999/02/22-rdf-syntax-ns#">
   <cc:Work>
    <dc:type rdf:resource="http://purl.org/dc/dcmitype/StillImage"/>
    <dc:date>2023-05-17T10:41:01.165440</dc:date>
    <dc:format>image/svg+xml</dc:format>
    <dc:creator>
     <cc:Agent>
      <dc:title>Matplotlib v3.4.3, https://matplotlib.org/</dc:title>
     </cc:Agent>
    </dc:creator>
   </cc:Work>
  </rdf:RDF>
 </metadata>
 <defs>
  <style type="text/css">*{stroke-linecap:butt;stroke-linejoin:round;}</style>
 </defs>
 <g id="figure_1">
  <g id="patch_1">
   <path d="M 0 174.6 
L 345.24 174.6 
L 345.24 0 
L 0 0 
z
" style="fill:#ffffff;"/>
  </g>
  <g id="axes_1">
   <g id="patch_2">
    <path d="M 43.155 155.394 
L 310.716 155.394 
L 310.716 20.952 
L 43.155 20.952 
z
" style="fill:#ffffff;"/>
   </g>
   <g id="matplotlib.axis_1">
    <g id="xtick_1">
     <g id="line2d_1">
      <path clip-path="url(#p584dfa20c9)" d="M 55.316864 155.394 
L 55.316864 20.952 
" style="fill:none;stroke:#696969;stroke-linecap:square;stroke-width:0.8;"/>
     </g>
     <g id="line2d_2">
      <defs>
       <path d="M 0 0 
L 0 3.5 
" id="mb8f7b5b6fb" style="stroke:#000000;stroke-width:0.8;"/>
      </defs>
      <g>
       <use style="stroke:#000000;stroke-width:0.8;" x="55.316864" xlink:href="#mb8f7b5b6fb" y="155.394"/>
      </g>
     </g>
     <g id="text_1">
      <!-- 0 -->
      <g transform="translate(52.135614 169.992437)scale(0.1 -0.1)">
       <defs>
        <path d="M 2034 4250 
Q 1547 4250 1301 3770 
Q 1056 3291 1056 2328 
Q 1056 1369 1301 889 
Q 1547 409 2034 409 
Q 2525 409 2770 889 
Q 3016 1369 3016 2328 
Q 3016 3291 2770 3770 
Q 2525 4250 2034 4250 
z
M 2034 4750 
Q 2819 4750 3233 4129 
Q 3647 3509 3647 2328 
Q 3647 1150 3233 529 
Q 2819 -91 2034 -91 
Q 1250 -91 836 529 
Q 422 1150 422 2328 
Q 422 3509 836 4129 
Q 1250 4750 2034 4750 
z
" id="DejaVuSans-30" transform="scale(0.015625)"/>
       </defs>
       <use xlink:href="#DejaVuSans-30"/>
      </g>
     </g>
    </g>
    <g id="xtick_2">
     <g id="line2d_3">
      <path clip-path="url(#p584dfa20c9)" d="M 104.381197 155.394 
L 104.381197 20.952 
" style="fill:none;stroke:#696969;stroke-linecap:square;stroke-width:0.8;"/>
     </g>
     <g id="line2d_4">
      <g>
       <use style="stroke:#000000;stroke-width:0.8;" x="104.381197" xlink:href="#mb8f7b5b6fb" y="155.394"/>
      </g>
     </g>
     <g id="text_2">
      <!-- 20 -->
      <g transform="translate(98.018697 169.992437)scale(0.1 -0.1)">
       <defs>
        <path d="M 1228 531 
L 3431 531 
L 3431 0 
L 469 0 
L 469 531 
Q 828 903 1448 1529 
Q 2069 2156 2228 2338 
Q 2531 2678 2651 2914 
Q 2772 3150 2772 3378 
Q 2772 3750 2511 3984 
Q 2250 4219 1831 4219 
Q 1534 4219 1204 4116 
Q 875 4013 500 3803 
L 500 4441 
Q 881 4594 1212 4672 
Q 1544 4750 1819 4750 
Q 2544 4750 2975 4387 
Q 3406 4025 3406 3419 
Q 3406 3131 3298 2873 
Q 3191 2616 2906 2266 
Q 2828 2175 2409 1742 
Q 1991 1309 1228 531 
z
" id="DejaVuSans-32" transform="scale(0.015625)"/>
       </defs>
       <use xlink:href="#DejaVuSans-32"/>
       <use x="63.623047" xlink:href="#DejaVuSans-30"/>
      </g>
     </g>
    </g>
    <g id="xtick_3">
     <g id="line2d_5">
      <path clip-path="url(#p584dfa20c9)" d="M 153.44553 155.394 
L 153.44553 20.952 
" style="fill:none;stroke:#696969;stroke-linecap:square;stroke-width:0.8;"/>
     </g>
     <g id="line2d_6">
      <g>
       <use style="stroke:#000000;stroke-width:0.8;" x="153.44553" xlink:href="#mb8f7b5b6fb" y="155.394"/>
      </g>
     </g>
     <g id="text_3">
      <!-- 40 -->
      <g transform="translate(147.08303 169.992437)scale(0.1 -0.1)">
       <defs>
        <path d="M 2419 4116 
L 825 1625 
L 2419 1625 
L 2419 4116 
z
M 2253 4666 
L 3047 4666 
L 3047 1625 
L 3713 1625 
L 3713 1100 
L 3047 1100 
L 3047 0 
L 2419 0 
L 2419 1100 
L 313 1100 
L 313 1709 
L 2253 4666 
z
" id="DejaVuSans-34" transform="scale(0.015625)"/>
       </defs>
       <use xlink:href="#DejaVuSans-34"/>
       <use x="63.623047" xlink:href="#DejaVuSans-30"/>
      </g>
     </g>
    </g>
    <g id="xtick_4">
     <g id="line2d_7">
      <path clip-path="url(#p584dfa20c9)" d="M 202.509862 155.394 
L 202.509862 20.952 
" style="fill:none;stroke:#696969;stroke-linecap:square;stroke-width:0.8;"/>
     </g>
     <g id="line2d_8">
      <g>
       <use style="stroke:#000000;stroke-width:0.8;" x="202.509862" xlink:href="#mb8f7b5b6fb" y="155.394"/>
      </g>
     </g>
     <g id="text_4">
      <!-- 60 -->
      <g transform="translate(196.147362 169.992437)scale(0.1 -0.1)">
       <defs>
        <path d="M 2113 2584 
Q 1688 2584 1439 2293 
Q 1191 2003 1191 1497 
Q 1191 994 1439 701 
Q 1688 409 2113 409 
Q 2538 409 2786 701 
Q 3034 994 3034 1497 
Q 3034 2003 2786 2293 
Q 2538 2584 2113 2584 
z
M 3366 4563 
L 3366 3988 
Q 3128 4100 2886 4159 
Q 2644 4219 2406 4219 
Q 1781 4219 1451 3797 
Q 1122 3375 1075 2522 
Q 1259 2794 1537 2939 
Q 1816 3084 2150 3084 
Q 2853 3084 3261 2657 
Q 3669 2231 3669 1497 
Q 3669 778 3244 343 
Q 2819 -91 2113 -91 
Q 1303 -91 875 529 
Q 447 1150 447 2328 
Q 447 3434 972 4092 
Q 1497 4750 2381 4750 
Q 2619 4750 2861 4703 
Q 3103 4656 3366 4563 
z
" id="DejaVuSans-36" transform="scale(0.015625)"/>
       </defs>
       <use xlink:href="#DejaVuSans-36"/>
       <use x="63.623047" xlink:href="#DejaVuSans-30"/>
      </g>
     </g>
    </g>
    <g id="xtick_5">
     <g id="line2d_9">
      <path clip-path="url(#p584dfa20c9)" d="M 251.574195 155.394 
L 251.574195 20.952 
" style="fill:none;stroke:#696969;stroke-linecap:square;stroke-width:0.8;"/>
     </g>
     <g id="line2d_10">
      <g>
       <use style="stroke:#000000;stroke-width:0.8;" x="251.574195" xlink:href="#mb8f7b5b6fb" y="155.394"/>
      </g>
     </g>
     <g id="text_5">
      <!-- 80 -->
      <g transform="translate(245.211695 169.992437)scale(0.1 -0.1)">
       <defs>
        <path d="M 2034 2216 
Q 1584 2216 1326 1975 
Q 1069 1734 1069 1313 
Q 1069 891 1326 650 
Q 1584 409 2034 409 
Q 2484 409 2743 651 
Q 3003 894 3003 1313 
Q 3003 1734 2745 1975 
Q 2488 2216 2034 2216 
z
M 1403 2484 
Q 997 2584 770 2862 
Q 544 3141 544 3541 
Q 544 4100 942 4425 
Q 1341 4750 2034 4750 
Q 2731 4750 3128 4425 
Q 3525 4100 3525 3541 
Q 3525 3141 3298 2862 
Q 3072 2584 2669 2484 
Q 3125 2378 3379 2068 
Q 3634 1759 3634 1313 
Q 3634 634 3220 271 
Q 2806 -91 2034 -91 
Q 1263 -91 848 271 
Q 434 634 434 1313 
Q 434 1759 690 2068 
Q 947 2378 1403 2484 
z
M 1172 3481 
Q 1172 3119 1398 2916 
Q 1625 2713 2034 2713 
Q 2441 2713 2670 2916 
Q 2900 3119 2900 3481 
Q 2900 3844 2670 4047 
Q 2441 4250 2034 4250 
Q 1625 4250 1398 4047 
Q 1172 3844 1172 3481 
z
" id="DejaVuSans-38" transform="scale(0.015625)"/>
       </defs>
       <use xlink:href="#DejaVuSans-38"/>
       <use x="63.623047" xlink:href="#DejaVuSans-30"/>
      </g>
     </g>
    </g>
    <g id="xtick_6">
     <g id="line2d_11">
      <path clip-path="url(#p584dfa20c9)" d="M 300.638528 155.394 
L 300.638528 20.952 
" style="fill:none;stroke:#696969;stroke-linecap:square;stroke-width:0.8;"/>
     </g>
     <g id="line2d_12">
      <g>
       <use style="stroke:#000000;stroke-width:0.8;" x="300.638528" xlink:href="#mb8f7b5b6fb" y="155.394"/>
      </g>
     </g>
     <g id="text_6">
      <!-- 100 -->
      <g transform="translate(291.094778 169.992437)scale(0.1 -0.1)">
       <defs>
        <path d="M 794 531 
L 1825 531 
L 1825 4091 
L 703 3866 
L 703 4441 
L 1819 4666 
L 2450 4666 
L 2450 531 
L 3481 531 
L 3481 0 
L 794 0 
L 794 531 
z
" id="DejaVuSans-31" transform="scale(0.015625)"/>
       </defs>
       <use xlink:href="#DejaVuSans-31"/>
       <use x="63.623047" xlink:href="#DejaVuSans-30"/>
       <use x="127.246094" xlink:href="#DejaVuSans-30"/>
      </g>
     </g>
    </g>
    <g id="xtick_7">
     <g id="line2d_13">
      <path clip-path="url(#p584dfa20c9)" d="M 67.582947 155.394 
L 67.582947 20.952 
" style="fill:none;stroke:#d3d3d3;stroke-dasharray:2.96,1.28;stroke-dashoffset:0;stroke-width:0.8;"/>
     </g>
     <g id="line2d_14">
      <defs>
       <path d="M 0 0 
L 0 2 
" id="mc5c487aafc" style="stroke:#000000;stroke-width:0.6;"/>
      </defs>
      <g>
       <use style="stroke:#000000;stroke-width:0.6;" x="67.582947" xlink:href="#mc5c487aafc" y="155.394"/>
      </g>
     </g>
    </g>
    <g id="xtick_8">
     <g id="line2d_15">
      <path clip-path="url(#p584dfa20c9)" d="M 79.84903 155.394 
L 79.84903 20.952 
" style="fill:none;stroke:#d3d3d3;stroke-dasharray:2.96,1.28;stroke-dashoffset:0;stroke-width:0.8;"/>
     </g>
     <g id="line2d_16">
      <g>
       <use style="stroke:#000000;stroke-width:0.6;" x="79.84903" xlink:href="#mc5c487aafc" y="155.394"/>
      </g>
     </g>
    </g>
    <g id="xtick_9">
     <g id="line2d_17">
      <path clip-path="url(#p584dfa20c9)" d="M 92.115113 155.394 
L 92.115113 20.952 
" style="fill:none;stroke:#d3d3d3;stroke-dasharray:2.96,1.28;stroke-dashoffset:0;stroke-width:0.8;"/>
     </g>
     <g id="line2d_18">
      <g>
       <use style="stroke:#000000;stroke-width:0.6;" x="92.115113" xlink:href="#mc5c487aafc" y="155.394"/>
      </g>
     </g>
    </g>
    <g id="xtick_10">
     <g id="line2d_19">
      <path clip-path="url(#p584dfa20c9)" d="M 116.64728 155.394 
L 116.64728 20.952 
" style="fill:none;stroke:#d3d3d3;stroke-dasharray:2.96,1.28;stroke-dashoffset:0;stroke-width:0.8;"/>
     </g>
     <g id="line2d_20">
      <g>
       <use style="stroke:#000000;stroke-width:0.6;" x="116.64728" xlink:href="#mc5c487aafc" y="155.394"/>
      </g>
     </g>
    </g>
    <g id="xtick_11">
     <g id="line2d_21">
      <path clip-path="url(#p584dfa20c9)" d="M 128.913363 155.394 
L 128.913363 20.952 
" style="fill:none;stroke:#d3d3d3;stroke-dasharray:2.96,1.28;stroke-dashoffset:0;stroke-width:0.8;"/>
     </g>
     <g id="line2d_22">
      <g>
       <use style="stroke:#000000;stroke-width:0.6;" x="128.913363" xlink:href="#mc5c487aafc" y="155.394"/>
      </g>
     </g>
    </g>
    <g id="xtick_12">
     <g id="line2d_23">
      <path clip-path="url(#p584dfa20c9)" d="M 141.179446 155.394 
L 141.179446 20.952 
" style="fill:none;stroke:#d3d3d3;stroke-dasharray:2.96,1.28;stroke-dashoffset:0;stroke-width:0.8;"/>
     </g>
     <g id="line2d_24">
      <g>
       <use style="stroke:#000000;stroke-width:0.6;" x="141.179446" xlink:href="#mc5c487aafc" y="155.394"/>
      </g>
     </g>
    </g>
    <g id="xtick_13">
     <g id="line2d_25">
      <path clip-path="url(#p584dfa20c9)" d="M 165.711613 155.394 
L 165.711613 20.952 
" style="fill:none;stroke:#d3d3d3;stroke-dasharray:2.96,1.28;stroke-dashoffset:0;stroke-width:0.8;"/>
     </g>
     <g id="line2d_26">
      <g>
       <use style="stroke:#000000;stroke-width:0.6;" x="165.711613" xlink:href="#mc5c487aafc" y="155.394"/>
      </g>
     </g>
    </g>
    <g id="xtick_14">
     <g id="line2d_27">
      <path clip-path="url(#p584dfa20c9)" d="M 177.977696 155.394 
L 177.977696 20.952 
" style="fill:none;stroke:#d3d3d3;stroke-dasharray:2.96,1.28;stroke-dashoffset:0;stroke-width:0.8;"/>
     </g>
     <g id="line2d_28">
      <g>
       <use style="stroke:#000000;stroke-width:0.6;" x="177.977696" xlink:href="#mc5c487aafc" y="155.394"/>
      </g>
     </g>
    </g>
    <g id="xtick_15">
     <g id="line2d_29">
      <path clip-path="url(#p584dfa20c9)" d="M 190.243779 155.394 
L 190.243779 20.952 
" style="fill:none;stroke:#d3d3d3;stroke-dasharray:2.96,1.28;stroke-dashoffset:0;stroke-width:0.8;"/>
     </g>
     <g id="line2d_30">
      <g>
       <use style="stroke:#000000;stroke-width:0.6;" x="190.243779" xlink:href="#mc5c487aafc" y="155.394"/>
      </g>
     </g>
    </g>
    <g id="xtick_16">
     <g id="line2d_31">
      <path clip-path="url(#p584dfa20c9)" d="M 214.775946 155.394 
L 214.775946 20.952 
" style="fill:none;stroke:#d3d3d3;stroke-dasharray:2.96,1.28;stroke-dashoffset:0;stroke-width:0.8;"/>
     </g>
     <g id="line2d_32">
      <g>
       <use style="stroke:#000000;stroke-width:0.6;" x="214.775946" xlink:href="#mc5c487aafc" y="155.394"/>
      </g>
     </g>
    </g>
    <g id="xtick_17">
     <g id="line2d_33">
      <path clip-path="url(#p584dfa20c9)" d="M 227.042029 155.394 
L 227.042029 20.952 
" style="fill:none;stroke:#d3d3d3;stroke-dasharray:2.96,1.28;stroke-dashoffset:0;stroke-width:0.8;"/>
     </g>
     <g id="line2d_34">
      <g>
       <use style="stroke:#000000;stroke-width:0.6;" x="227.042029" xlink:href="#mc5c487aafc" y="155.394"/>
      </g>
     </g>
    </g>
    <g id="xtick_18">
     <g id="line2d_35">
      <path clip-path="url(#p584dfa20c9)" d="M 239.308112 155.394 
L 239.308112 20.952 
" style="fill:none;stroke:#d3d3d3;stroke-dasharray:2.96,1.28;stroke-dashoffset:0;stroke-width:0.8;"/>
     </g>
     <g id="line2d_36">
      <g>
       <use style="stroke:#000000;stroke-width:0.6;" x="239.308112" xlink:href="#mc5c487aafc" y="155.394"/>
      </g>
     </g>
    </g>
    <g id="xtick_19">
     <g id="line2d_37">
      <path clip-path="url(#p584dfa20c9)" d="M 263.840279 155.394 
L 263.840279 20.952 
" style="fill:none;stroke:#d3d3d3;stroke-dasharray:2.96,1.28;stroke-dashoffset:0;stroke-width:0.8;"/>
     </g>
     <g id="line2d_38">
      <g>
       <use style="stroke:#000000;stroke-width:0.6;" x="263.840279" xlink:href="#mc5c487aafc" y="155.394"/>
      </g>
     </g>
    </g>
    <g id="xtick_20">
     <g id="line2d_39">
      <path clip-path="url(#p584dfa20c9)" d="M 276.106362 155.394 
L 276.106362 20.952 
" style="fill:none;stroke:#d3d3d3;stroke-dasharray:2.96,1.28;stroke-dashoffset:0;stroke-width:0.8;"/>
     </g>
     <g id="line2d_40">
      <g>
       <use style="stroke:#000000;stroke-width:0.6;" x="276.106362" xlink:href="#mc5c487aafc" y="155.394"/>
      </g>
     </g>
    </g>
    <g id="xtick_21">
     <g id="line2d_41">
      <path clip-path="url(#p584dfa20c9)" d="M 288.372445 155.394 
L 288.372445 20.952 
" style="fill:none;stroke:#d3d3d3;stroke-dasharray:2.96,1.28;stroke-dashoffset:0;stroke-width:0.8;"/>
     </g>
     <g id="line2d_42">
      <g>
       <use style="stroke:#000000;stroke-width:0.6;" x="288.372445" xlink:href="#mc5c487aafc" y="155.394"/>
      </g>
     </g>
    </g>
    <g id="text_7">
     <!-- t, c -->
     <g transform="translate(169.048 183.670562)scale(0.1 -0.1)">
      <defs>
       <path d="M 1172 4494 
L 1172 3500 
L 2356 3500 
L 2356 3053 
L 1172 3053 
L 1172 1153 
Q 1172 725 1289 603 
Q 1406 481 1766 481 
L 2356 481 
L 2356 0 
L 1766 0 
Q 1100 0 847 248 
Q 594 497 594 1153 
L 594 3053 
L 172 3053 
L 172 3500 
L 594 3500 
L 594 4494 
L 1172 4494 
z
" id="DejaVuSans-74" transform="scale(0.015625)"/>
       <path d="M 750 794 
L 1409 794 
L 1409 256 
L 897 -744 
L 494 -744 
L 750 256 
L 750 794 
z
" id="DejaVuSans-2c" transform="scale(0.015625)"/>
       <path id="DejaVuSans-20" transform="scale(0.015625)"/>
       <path d="M 3122 3366 
L 3122 2828 
Q 2878 2963 2633 3030 
Q 2388 3097 2138 3097 
Q 1578 3097 1268 2742 
Q 959 2388 959 1747 
Q 959 1106 1268 751 
Q 1578 397 2138 397 
Q 2388 397 2633 464 
Q 2878 531 3122 666 
L 3122 134 
Q 2881 22 2623 -34 
Q 2366 -91 2075 -91 
Q 1284 -91 818 406 
Q 353 903 353 1747 
Q 353 2603 823 3093 
Q 1294 3584 2113 3584 
Q 2378 3584 2631 3529 
Q 2884 3475 3122 3366 
z
" id="DejaVuSans-63" transform="scale(0.015625)"/>
      </defs>
      <use xlink:href="#DejaVuSans-74"/>
      <use x="39.208984" xlink:href="#DejaVuSans-2c"/>
      <use x="70.996094" xlink:href="#DejaVuSans-20"/>
      <use x="102.783203" xlink:href="#DejaVuSans-63"/>
     </g>
    </g>
   </g>
   <g id="matplotlib.axis_2">
    <g id="ytick_1">
     <g id="line2d_43">
      <path clip-path="url(#p584dfa20c9)" d="M 43.155 149.283 
L 310.716 149.283 
" style="fill:none;stroke:#696969;stroke-linecap:square;stroke-width:0.8;"/>
     </g>
     <g id="line2d_44">
      <defs>
       <path d="M 0 0 
L -3.5 0 
" id="m9744168289" style="stroke:#000000;stroke-width:0.8;"/>
      </defs>
      <g>
       <use style="stroke:#000000;stroke-width:0.8;" x="43.155" xlink:href="#m9744168289" y="149.283"/>
      </g>
     </g>
     <g id="text_8">
      <!-- 0 -->
      <g transform="translate(29.7925 153.082219)scale(0.1 -0.1)">
       <use xlink:href="#DejaVuSans-30"/>
      </g>
     </g>
    </g>
    <g id="ytick_2">
     <g id="line2d_45">
      <path clip-path="url(#p584dfa20c9)" d="M 43.155 110.734948 
L 310.716 110.734948 
" style="fill:none;stroke:#696969;stroke-linecap:square;stroke-width:0.8;"/>
     </g>
     <g id="line2d_46">
      <g>
       <use style="stroke:#000000;stroke-width:0.8;" x="43.155" xlink:href="#m9744168289" y="110.734948"/>
      </g>
     </g>
     <g id="text_9">
      <!-- 1 -->
      <g transform="translate(29.7925 114.534167)scale(0.1 -0.1)">
       <use xlink:href="#DejaVuSans-31"/>
      </g>
     </g>
    </g>
    <g id="ytick_3">
     <g id="line2d_47">
      <path clip-path="url(#p584dfa20c9)" d="M 43.155 72.186896 
L 310.716 72.186896 
" style="fill:none;stroke:#696969;stroke-linecap:square;stroke-width:0.8;"/>
     </g>
     <g id="line2d_48">
      <g>
       <use style="stroke:#000000;stroke-width:0.8;" x="43.155" xlink:href="#m9744168289" y="72.186896"/>
      </g>
     </g>
     <g id="text_10">
      <!-- 2 -->
      <g transform="translate(29.7925 75.986115)scale(0.1 -0.1)">
       <use xlink:href="#DejaVuSans-32"/>
      </g>
     </g>
    </g>
    <g id="ytick_4">
     <g id="line2d_49">
      <path clip-path="url(#p584dfa20c9)" d="M 43.155 33.638844 
L 310.716 33.638844 
" style="fill:none;stroke:#696969;stroke-linecap:square;stroke-width:0.8;"/>
     </g>
     <g id="line2d_50">
      <g>
       <use style="stroke:#000000;stroke-width:0.8;" x="43.155" xlink:href="#m9744168289" y="33.638844"/>
      </g>
     </g>
     <g id="text_11">
      <!-- 3 -->
      <g transform="translate(29.7925 37.438063)scale(0.1 -0.1)">
       <defs>
        <path d="M 2597 2516 
Q 3050 2419 3304 2112 
Q 3559 1806 3559 1356 
Q 3559 666 3084 287 
Q 2609 -91 1734 -91 
Q 1441 -91 1130 -33 
Q 819 25 488 141 
L 488 750 
Q 750 597 1062 519 
Q 1375 441 1716 441 
Q 2309 441 2620 675 
Q 2931 909 2931 1356 
Q 2931 1769 2642 2001 
Q 2353 2234 1838 2234 
L 1294 2234 
L 1294 2753 
L 1863 2753 
Q 2328 2753 2575 2939 
Q 2822 3125 2822 3475 
Q 2822 3834 2567 4026 
Q 2313 4219 1838 4219 
Q 1578 4219 1281 4162 
Q 984 4106 628 3988 
L 628 4550 
Q 988 4650 1302 4700 
Q 1616 4750 1894 4750 
Q 2613 4750 3031 4423 
Q 3450 4097 3450 3541 
Q 3450 3153 3228 2886 
Q 3006 2619 2597 2516 
z
" id="DejaVuSans-33" transform="scale(0.015625)"/>
       </defs>
       <use xlink:href="#DejaVuSans-33"/>
      </g>
     </g>
    </g>
    <g id="ytick_5">
     <g id="line2d_51">
      <path clip-path="url(#p584dfa20c9)" d="M 43.155 141.57339 
L 310.716 141.57339 
" style="fill:none;stroke:#d3d3d3;stroke-dasharray:2.96,1.28;stroke-dashoffset:0;stroke-width:0.8;"/>
     </g>
     <g id="line2d_52">
      <defs>
       <path d="M 0 0 
L -2 0 
" id="m471828ec8a" style="stroke:#000000;stroke-width:0.6;"/>
      </defs>
      <g>
       <use style="stroke:#000000;stroke-width:0.6;" x="43.155" xlink:href="#m471828ec8a" y="141.57339"/>
      </g>
     </g>
    </g>
    <g id="ytick_6">
     <g id="line2d_53">
      <path clip-path="url(#p584dfa20c9)" d="M 43.155 133.863779 
L 310.716 133.863779 
" style="fill:none;stroke:#d3d3d3;stroke-dasharray:2.96,1.28;stroke-dashoffset:0;stroke-width:0.8;"/>
     </g>
     <g id="line2d_54">
      <g>
       <use style="stroke:#000000;stroke-width:0.6;" x="43.155" xlink:href="#m471828ec8a" y="133.863779"/>
      </g>
     </g>
    </g>
    <g id="ytick_7">
     <g id="line2d_55">
      <path clip-path="url(#p584dfa20c9)" d="M 43.155 126.154169 
L 310.716 126.154169 
" style="fill:none;stroke:#d3d3d3;stroke-dasharray:2.96,1.28;stroke-dashoffset:0;stroke-width:0.8;"/>
     </g>
     <g id="line2d_56">
      <g>
       <use style="stroke:#000000;stroke-width:0.6;" x="43.155" xlink:href="#m471828ec8a" y="126.154169"/>
      </g>
     </g>
    </g>
    <g id="ytick_8">
     <g id="line2d_57">
      <path clip-path="url(#p584dfa20c9)" d="M 43.155 118.444558 
L 310.716 118.444558 
" style="fill:none;stroke:#d3d3d3;stroke-dasharray:2.96,1.28;stroke-dashoffset:0;stroke-width:0.8;"/>
     </g>
     <g id="line2d_58">
      <g>
       <use style="stroke:#000000;stroke-width:0.6;" x="43.155" xlink:href="#m471828ec8a" y="118.444558"/>
      </g>
     </g>
    </g>
    <g id="ytick_9">
     <g id="line2d_59">
      <path clip-path="url(#p584dfa20c9)" d="M 43.155 103.025338 
L 310.716 103.025338 
" style="fill:none;stroke:#d3d3d3;stroke-dasharray:2.96,1.28;stroke-dashoffset:0;stroke-width:0.8;"/>
     </g>
     <g id="line2d_60">
      <g>
       <use style="stroke:#000000;stroke-width:0.6;" x="43.155" xlink:href="#m471828ec8a" y="103.025338"/>
      </g>
     </g>
    </g>
    <g id="ytick_10">
     <g id="line2d_61">
      <path clip-path="url(#p584dfa20c9)" d="M 43.155 95.315727 
L 310.716 95.315727 
" style="fill:none;stroke:#d3d3d3;stroke-dasharray:2.96,1.28;stroke-dashoffset:0;stroke-width:0.8;"/>
     </g>
     <g id="line2d_62">
      <g>
       <use style="stroke:#000000;stroke-width:0.6;" x="43.155" xlink:href="#m471828ec8a" y="95.315727"/>
      </g>
     </g>
    </g>
    <g id="ytick_11">
     <g id="line2d_63">
      <path clip-path="url(#p584dfa20c9)" d="M 43.155 87.606117 
L 310.716 87.606117 
" style="fill:none;stroke:#d3d3d3;stroke-dasharray:2.96,1.28;stroke-dashoffset:0;stroke-width:0.8;"/>
     </g>
     <g id="line2d_64">
      <g>
       <use style="stroke:#000000;stroke-width:0.6;" x="43.155" xlink:href="#m471828ec8a" y="87.606117"/>
      </g>
     </g>
    </g>
    <g id="ytick_12">
     <g id="line2d_65">
      <path clip-path="url(#p584dfa20c9)" d="M 43.155 79.896506 
L 310.716 79.896506 
" style="fill:none;stroke:#d3d3d3;stroke-dasharray:2.96,1.28;stroke-dashoffset:0;stroke-width:0.8;"/>
     </g>
     <g id="line2d_66">
      <g>
       <use style="stroke:#000000;stroke-width:0.6;" x="43.155" xlink:href="#m471828ec8a" y="79.896506"/>
      </g>
     </g>
    </g>
    <g id="ytick_13">
     <g id="line2d_67">
      <path clip-path="url(#p584dfa20c9)" d="M 43.155 64.477286 
L 310.716 64.477286 
" style="fill:none;stroke:#d3d3d3;stroke-dasharray:2.96,1.28;stroke-dashoffset:0;stroke-width:0.8;"/>
     </g>
     <g id="line2d_68">
      <g>
       <use style="stroke:#000000;stroke-width:0.6;" x="43.155" xlink:href="#m471828ec8a" y="64.477286"/>
      </g>
     </g>
    </g>
    <g id="ytick_14">
     <g id="line2d_69">
      <path clip-path="url(#p584dfa20c9)" d="M 43.155 56.767675 
L 310.716 56.767675 
" style="fill:none;stroke:#d3d3d3;stroke-dasharray:2.96,1.28;stroke-dashoffset:0;stroke-width:0.8;"/>
     </g>
     <g id="line2d_70">
      <g>
       <use style="stroke:#000000;stroke-width:0.6;" x="43.155" xlink:href="#m471828ec8a" y="56.767675"/>
      </g>
     </g>
    </g>
    <g id="ytick_15">
     <g id="line2d_71">
      <path clip-path="url(#p584dfa20c9)" d="M 43.155 49.058065 
L 310.716 49.058065 
" style="fill:none;stroke:#d3d3d3;stroke-dasharray:2.96,1.28;stroke-dashoffset:0;stroke-width:0.8;"/>
     </g>
     <g id="line2d_72">
      <g>
       <use style="stroke:#000000;stroke-width:0.6;" x="43.155" xlink:href="#m471828ec8a" y="49.058065"/>
      </g>
     </g>
    </g>
    <g id="ytick_16">
     <g id="line2d_73">
      <path clip-path="url(#p584dfa20c9)" d="M 43.155 41.348455 
L 310.716 41.348455 
" style="fill:none;stroke:#d3d3d3;stroke-dasharray:2.96,1.28;stroke-dashoffset:0;stroke-width:0.8;"/>
     </g>
     <g id="line2d_74">
      <g>
       <use style="stroke:#000000;stroke-width:0.6;" x="43.155" xlink:href="#m471828ec8a" y="41.348455"/>
      </g>
     </g>
    </g>
    <g id="ytick_17">
     <g id="line2d_75">
      <path clip-path="url(#p584dfa20c9)" d="M 43.155 25.929234 
L 310.716 25.929234 
" style="fill:none;stroke:#d3d3d3;stroke-dasharray:2.96,1.28;stroke-dashoffset:0;stroke-width:0.8;"/>
     </g>
     <g id="line2d_76">
      <g>
       <use style="stroke:#000000;stroke-width:0.6;" x="43.155" xlink:href="#m471828ec8a" y="25.929234"/>
      </g>
     </g>
    </g>
    <g id="text_12">
     <!-- U, V -->
     <g transform="translate(23.712812 98.430813)rotate(-90)scale(0.1 -0.1)">
      <defs>
       <path d="M 556 4666 
L 1191 4666 
L 1191 1831 
Q 1191 1081 1462 751 
Q 1734 422 2344 422 
Q 2950 422 3222 751 
Q 3494 1081 3494 1831 
L 3494 4666 
L 4128 4666 
L 4128 1753 
Q 4128 841 3676 375 
Q 3225 -91 2344 -91 
Q 1459 -91 1007 375 
Q 556 841 556 1753 
L 556 4666 
z
" id="DejaVuSans-55" transform="scale(0.015625)"/>
       <path d="M 1831 0 
L 50 4666 
L 709 4666 
L 2188 738 
L 3669 4666 
L 4325 4666 
L 2547 0 
L 1831 0 
z
" id="DejaVuSans-56" transform="scale(0.015625)"/>
      </defs>
      <use xlink:href="#DejaVuSans-55"/>
      <use x="73.193359" xlink:href="#DejaVuSans-2c"/>
      <use x="104.980469" xlink:href="#DejaVuSans-20"/>
      <use x="136.767578" xlink:href="#DejaVuSans-56"/>
     </g>
    </g>
   </g>
   <g id="line2d_77">
    <path clip-path="url(#p584dfa20c9)" d="M 55.316864 149.283 
L 55.756714 144.294429 
L 56.196564 144.294429 
L 57.076265 143.296714 
L 57.516116 143.296714 
L 58.395816 142.299 
L 58.835667 141.301286 
L 60.155218 139.804714 
L 60.595068 139.804714 
L 61.034919 139.305857 
L 61.91462 137.310429 
L 62.35447 137.310429 
L 63.234171 135.315 
L 64.113872 134.317286 
L 64.553722 133.319571 
L 64.993572 132.820714 
L 65.433423 131.823 
L 65.873273 131.324143 
L 67.632675 127.333286 
L 68.072525 126.834429 
L 68.512376 125.836714 
L 68.952226 124.340143 
L 70.271777 121.347 
L 70.711628 119.850429 
L 71.591329 117.855 
L 72.031179 116.358429 
L 72.471029 115.360714 
L 72.91088 113.864143 
L 73.35073 112.866429 
L 74.230431 109.873286 
L 75.110132 107.877857 
L 75.989833 104.385857 
L 76.429683 102.889286 
L 76.869533 101.891571 
L 79.948486 91.415571 
L 80.388337 89.420143 
L 80.828187 88.422429 
L 82.147738 82.935 
L 82.587589 81.937286 
L 83.027439 79.941857 
L 83.467289 78.944143 
L 84.34699 75.452143 
L 84.786841 80.939571 
L 85.226691 72.957857 
L 86.546242 68.468143 
L 86.986093 67.470429 
L 88.305644 62.980714 
L 88.745494 61.983 
L 89.185345 60.486429 
L 90.065045 58.491 
L 90.944746 55.497857 
L 93.143998 50.509286 
L 93.583849 50.010429 
L 94.023699 48.513857 
L 94.463549 47.516143 
L 94.9034 47.017286 
L 95.783101 45.021857 
L 96.222951 44.523 
L 96.662801 43.026429 
L 97.982353 41.529857 
L 98.422203 40.532143 
L 98.862054 40.033286 
L 99.301904 39.035571 
L 100.621455 37.539 
L 101.061306 36.541286 
L 101.941006 35.543571 
L 102.380857 35.543571 
L 103.260558 34.545857 
L 103.700408 33.548143 
L 104.140258 33.548143 
L 104.580109 33.049286 
L 105.019959 33.049286 
L 105.45981 50.010429 
L 105.89966 32.051571 
L 106.33951 31.552714 
L 106.779361 31.552714 
L 107.219211 31.053857 
L 107.659062 31.053857 
L 108.978613 29.557286 
L 109.418463 30.056143 
L 109.858314 29.557286 
L 110.298164 29.557286 
L 111.177865 28.559571 
L 111.617715 28.559571 
L 112.057566 28.060714 
L 112.497416 28.559571 
L 113.377117 27.561857 
L 113.816967 27.561857 
L 114.256818 27.063 
L 115.136518 37.539 
L 116.45607 50.010429 
L 117.33577 56.495571 
L 118.655322 64.976143 
L 120.414723 74.454429 
L 122.174125 81.937286 
L 123.053826 84.930429 
L 123.493676 86.925857 
L 123.933526 87.923571 
L 124.813227 90.916714 
L 125.253078 91.914429 
L 125.692928 93.411 
L 128.771881 100.395 
L 129.211731 100.893857 
L 130.531283 103.887 
L 130.971133 104.385857 
L 131.410983 105.383571 
L 132.730535 106.880143 
L 133.170385 107.877857 
L 133.610235 108.376714 
L 134.050086 109.374429 
L 135.369637 110.871 
L 135.809487 110.871 
L 136.689188 111.868714 
L 137.129039 112.866429 
L 138.008739 113.864143 
L 138.44859 113.864143 
L 141.087692 116.857286 
L 141.527543 116.857286 
L 143.286944 118.852714 
L 143.726795 118.852714 
L 144.166645 119.351571 
L 144.606495 119.351571 
L 145.486196 120.349286 
L 145.926047 120.349286 
L 146.365897 120.848143 
L 146.805747 120.848143 
L 147.245598 121.347 
L 147.685448 121.347 
L 149.004999 122.843571 
L 149.8847 122.843571 
L 150.324551 123.342429 
L 151.204251 123.342429 
L 152.083952 124.340143 
L 152.963653 124.340143 
L 153.403503 124.839 
L 153.843354 124.839 
L 154.723055 125.836714 
L 155.602755 125.836714 
L 156.042606 126.335571 
L 156.922307 126.335571 
L 157.362157 126.834429 
L 158.681708 126.834429 
L 159.561409 127.832143 
L 160.44111 127.832143 
L 160.88096 128.331 
L 161.760661 128.331 
L 162.200512 128.829857 
L 163.080212 128.829857 
L 163.520063 129.328714 
L 164.839614 129.328714 
L 165.279464 129.827571 
L 166.599016 129.827571 
L 167.038866 130.326429 
L 168.358417 130.326429 
L 168.798268 130.825286 
L 170.117819 130.825286 
L 170.557669 131.324143 
L 171.87722 131.324143 
L 172.317071 131.823 
L 172.756921 131.823 
L 173.196772 132.321857 
L 175.396024 132.321857 
L 175.835874 132.820714 
L 178.035126 132.820714 
L 178.474976 133.319571 
L 179.354677 133.319571 
L 179.794528 133.818429 
L 181.99378 133.818429 
L 182.43363 134.317286 
L 182.87348 133.818429 
L 183.313331 134.317286 
L 184.193032 134.317286 
L 184.632882 134.816143 
L 185.512583 134.816143 
L 185.952433 134.317286 
L 186.392284 134.816143 
L 187.711835 134.816143 
L 188.151685 135.315 
L 188.591536 135.315 
L 189.031386 135.813857 
L 189.471236 135.315 
L 189.911087 135.315 
L 190.350937 135.813857 
L 190.790788 135.315 
L 191.670488 136.312714 
L 192.110339 135.813857 
L 192.550189 135.813857 
L 192.99004 136.312714 
L 193.869741 136.312714 
L 194.309591 135.813857 
L 195.189292 136.811571 
L 195.629142 136.312714 
L 197.388544 136.312714 
L 197.828394 136.811571 
L 198.708095 136.811571 
L 199.147945 137.310429 
L 199.587796 136.811571 
L 200.467497 136.811571 
L 200.907347 137.310429 
L 203.9863 137.310429 
L 204.42615 137.809286 
L 204.866001 137.310429 
L 205.305851 137.809286 
L 205.745701 137.310429 
L 206.185552 137.809286 
L 206.625402 137.809286 
L 207.065253 138.308143 
L 207.505103 137.809286 
L 208.824654 137.809286 
L 209.264505 138.308143 
L 210.144205 138.308143 
L 210.584056 138.807 
L 211.023906 138.308143 
L 213.663009 138.308143 
L 214.102859 138.807 
L 216.302111 138.807 
L 216.741961 139.305857 
L 217.181812 138.807 
L 218.061513 138.807 
L 218.501363 139.305857 
L 218.941213 139.305857 
L 219.381064 138.807 
L 219.820914 138.807 
L 220.700615 139.804714 
L 221.140465 139.305857 
L 223.339717 139.305857 
L 223.779568 139.804714 
L 224.219418 139.305857 
L 224.659269 139.804714 
L 225.099119 139.804714 
L 225.53897 139.305857 
L 226.858521 139.305857 
L 227.298371 139.804714 
L 228.617922 139.804714 
L 229.057773 140.303571 
L 229.497623 139.804714 
L 229.937474 139.804714 
L 230.377324 140.303571 
L 230.817174 140.303571 
L 231.257025 139.804714 
L 231.696875 140.303571 
L 234.775828 140.303571 
L 235.215678 140.802429 
L 236.53523 140.802429 
L 236.97508 140.303571 
L 238.294631 140.303571 
L 238.734482 140.802429 
L 239.174332 140.303571 
L 239.614182 140.802429 
L 242.253285 140.802429 
L 242.693135 141.301286 
L 243.132986 140.802429 
L 244.012686 140.802429 
L 244.452537 141.301286 
L 244.892387 140.802429 
L 246.211938 140.802429 
L 246.651789 141.301286 
L 247.091639 141.301286 
L 247.53149 141.800143 
L 247.97134 141.301286 
L 249.290891 141.301286 
L 249.730742 141.800143 
L 250.170592 141.301286 
L 250.610442 141.800143 
L 251.050293 141.301286 
L 251.490143 141.800143 
L 252.369844 141.800143 
L 252.809694 141.301286 
L 253.249545 141.800143 
L 254.569096 141.800143 
L 255.008946 142.299 
L 255.448797 141.800143 
L 258.52775 141.800143 
L 258.9676 142.299 
L 259.407451 141.800143 
L 259.847301 142.299 
L 260.287151 142.299 
L 260.727002 141.800143 
L 261.166852 141.800143 
L 261.606703 142.299 
L 262.486403 142.299 
L 262.926254 141.800143 
L 263.366104 142.299 
L 263.805955 141.800143 
L 264.245805 142.299 
L 266.005207 142.299 
L 266.445057 141.800143 
L 267.324758 142.797857 
L 267.764608 142.299 
L 268.644309 142.299 
L 269.084159 142.797857 
L 269.52401 142.299 
L 269.96386 142.797857 
L 270.403711 142.797857 
L 270.843561 142.299 
L 271.283411 142.299 
L 271.723262 142.797857 
L 273.042813 142.797857 
L 273.482663 142.299 
L 273.922514 142.299 
L 274.362364 142.797857 
L 275.681915 142.797857 
L 276.121766 142.299 
L 276.561616 142.299 
L 277.001467 142.797857 
L 277.441317 142.797857 
L 277.881167 143.296714 
L 278.321018 142.797857 
L 278.760868 142.797857 
L 279.200719 143.296714 
L 279.640569 143.296714 
L 280.080419 142.797857 
L 282.279671 142.797857 
L 282.719522 143.296714 
L 283.159372 142.797857 
L 284.039073 142.797857 
L 284.478923 143.795571 
L 284.918774 143.296714 
L 285.798475 143.296714 
L 286.238325 142.797857 
L 287.118026 142.797857 
L 287.557876 143.296714 
L 288.437577 143.296714 
L 288.877428 142.797857 
L 289.317278 143.296714 
L 291.07668 143.296714 
L 291.51653 143.795571 
L 291.95638 143.296714 
L 293.275932 143.296714 
L 293.715782 142.797857 
L 294.155632 143.795571 
L 294.595483 143.296714 
L 295.035333 143.795571 
L 295.475184 143.296714 
L 295.915034 143.795571 
L 296.354884 143.795571 
L 296.794735 143.296714 
L 297.234585 143.795571 
L 297.674436 143.795571 
L 298.114286 143.296714 
L 298.554136 144.294429 
L 298.554136 144.294429 
" style="fill:none;stroke:#1f77b4;stroke-linecap:square;"/>
    <defs>
     <path d="M -0 1.414214 
L 1.414214 0 
L 0 -1.414214 
L -1.414214 -0 
z
" id="meac45610d7" style="stroke:#1f77b4;stroke-linejoin:miter;"/>
    </defs>
    <g clip-path="url(#p584dfa20c9)">
     <use style="fill:#1f77b4;stroke:#1f77b4;stroke-linejoin:miter;" x="55.316864" xlink:href="#meac45610d7" y="149.283"/>
     <use style="fill:#1f77b4;stroke:#1f77b4;stroke-linejoin:miter;" x="64.113872" xlink:href="#meac45610d7" y="134.317286"/>
     <use style="fill:#1f77b4;stroke:#1f77b4;stroke-linejoin:miter;" x="72.91088" xlink:href="#meac45610d7" y="113.864143"/>
     <use style="fill:#1f77b4;stroke:#1f77b4;stroke-linejoin:miter;" x="81.707888" xlink:href="#meac45610d7" y="84.930429"/>
     <use style="fill:#1f77b4;stroke:#1f77b4;stroke-linejoin:miter;" x="90.504896" xlink:href="#meac45610d7" y="56.994429"/>
     <use style="fill:#1f77b4;stroke:#1f77b4;stroke-linejoin:miter;" x="99.301904" xlink:href="#meac45610d7" y="39.035571"/>
     <use style="fill:#1f77b4;stroke:#1f77b4;stroke-linejoin:miter;" x="108.098912" xlink:href="#meac45610d7" y="30.555"/>
     <use style="fill:#1f77b4;stroke:#1f77b4;stroke-linejoin:miter;" x="116.89592" xlink:href="#meac45610d7" y="53.502429"/>
     <use style="fill:#1f77b4;stroke:#1f77b4;stroke-linejoin:miter;" x="125.692928" xlink:href="#meac45610d7" y="93.411"/>
     <use style="fill:#1f77b4;stroke:#1f77b4;stroke-linejoin:miter;" x="134.489936" xlink:href="#meac45610d7" y="109.873286"/>
     <use style="fill:#1f77b4;stroke:#1f77b4;stroke-linejoin:miter;" x="143.286944" xlink:href="#meac45610d7" y="118.852714"/>
     <use style="fill:#1f77b4;stroke:#1f77b4;stroke-linejoin:miter;" x="152.083952" xlink:href="#meac45610d7" y="124.340143"/>
     <use style="fill:#1f77b4;stroke:#1f77b4;stroke-linejoin:miter;" x="160.88096" xlink:href="#meac45610d7" y="128.331"/>
     <use style="fill:#1f77b4;stroke:#1f77b4;stroke-linejoin:miter;" x="169.677968" xlink:href="#meac45610d7" y="130.825286"/>
     <use style="fill:#1f77b4;stroke:#1f77b4;stroke-linejoin:miter;" x="178.474976" xlink:href="#meac45610d7" y="133.319571"/>
     <use style="fill:#1f77b4;stroke:#1f77b4;stroke-linejoin:miter;" x="187.271984" xlink:href="#meac45610d7" y="134.816143"/>
     <use style="fill:#1f77b4;stroke:#1f77b4;stroke-linejoin:miter;" x="196.068993" xlink:href="#meac45610d7" y="136.312714"/>
     <use style="fill:#1f77b4;stroke:#1f77b4;stroke-linejoin:miter;" x="204.866001" xlink:href="#meac45610d7" y="137.310429"/>
     <use style="fill:#1f77b4;stroke:#1f77b4;stroke-linejoin:miter;" x="213.663009" xlink:href="#meac45610d7" y="138.308143"/>
     <use style="fill:#1f77b4;stroke:#1f77b4;stroke-linejoin:miter;" x="222.460017" xlink:href="#meac45610d7" y="139.305857"/>
     <use style="fill:#1f77b4;stroke:#1f77b4;stroke-linejoin:miter;" x="231.257025" xlink:href="#meac45610d7" y="139.804714"/>
     <use style="fill:#1f77b4;stroke:#1f77b4;stroke-linejoin:miter;" x="240.054033" xlink:href="#meac45610d7" y="140.802429"/>
     <use style="fill:#1f77b4;stroke:#1f77b4;stroke-linejoin:miter;" x="248.851041" xlink:href="#meac45610d7" y="141.301286"/>
     <use style="fill:#1f77b4;stroke:#1f77b4;stroke-linejoin:miter;" x="257.648049" xlink:href="#meac45610d7" y="141.800143"/>
     <use style="fill:#1f77b4;stroke:#1f77b4;stroke-linejoin:miter;" x="266.445057" xlink:href="#meac45610d7" y="141.800143"/>
     <use style="fill:#1f77b4;stroke:#1f77b4;stroke-linejoin:miter;" x="275.242065" xlink:href="#meac45610d7" y="142.797857"/>
     <use style="fill:#1f77b4;stroke:#1f77b4;stroke-linejoin:miter;" x="284.039073" xlink:href="#meac45610d7" y="142.797857"/>
     <use style="fill:#1f77b4;stroke:#1f77b4;stroke-linejoin:miter;" x="292.836081" xlink:href="#meac45610d7" y="143.296714"/>
    </g>
   </g>
   <g id="patch_3">
    <path d="M 43.155 155.394 
L 43.155 20.952 
" style="fill:none;stroke:#000000;stroke-linecap:square;stroke-linejoin:miter;stroke-width:0.8;"/>
   </g>
   <g id="patch_4">
    <path d="M 310.716 155.394 
L 310.716 20.952 
" style="fill:none;stroke:#000000;stroke-linecap:square;stroke-linejoin:miter;stroke-width:0.8;"/>
   </g>
   <g id="patch_5">
    <path d="M 43.155 155.394 
L 310.716 155.394 
" style="fill:none;stroke:#000000;stroke-linecap:square;stroke-linejoin:miter;stroke-width:0.8;"/>
   </g>
   <g id="patch_6">
    <path d="M 43.155 20.952 
L 310.716 20.952 
" style="fill:none;stroke:#000000;stroke-linecap:square;stroke-linejoin:miter;stroke-width:0.8;"/>
   </g>
   <g id="text_13">
    <!-- график зарядки и разрядки конденсатора -->
    <g transform="translate(41.783625 14.952)scale(0.12 -0.12)">
     <defs>
      <path d="M 581 0 
L 581 3500 
L 3050 3500 
L 3050 3041 
L 1159 3041 
L 1159 0 
L 581 0 
z
" id="DejaVuSans-433" transform="scale(0.015625)"/>
      <path d="M 1159 525 
L 1159 -1331 
L 581 -1331 
L 581 3500 
L 1159 3500 
L 1159 2969 
Q 1341 3281 1617 3432 
Q 1894 3584 2278 3584 
Q 2916 3584 3314 3078 
Q 3713 2572 3713 1747 
Q 3713 922 3314 415 
Q 2916 -91 2278 -91 
Q 1894 -91 1617 61 
Q 1341 213 1159 525 
z
M 3116 1747 
Q 3116 2381 2855 2742 
Q 2594 3103 2138 3103 
Q 1681 3103 1420 2742 
Q 1159 2381 1159 1747 
Q 1159 1113 1420 752 
Q 1681 391 2138 391 
Q 2594 391 2855 752 
Q 3116 1113 3116 1747 
z
" id="DejaVuSans-440" transform="scale(0.015625)"/>
      <path d="M 2194 1759 
Q 1497 1759 1228 1600 
Q 959 1441 959 1056 
Q 959 750 1161 570 
Q 1363 391 1709 391 
Q 2188 391 2477 730 
Q 2766 1069 2766 1631 
L 2766 1759 
L 2194 1759 
z
M 3341 1997 
L 3341 0 
L 2766 0 
L 2766 531 
Q 2569 213 2275 61 
Q 1981 -91 1556 -91 
Q 1019 -91 701 211 
Q 384 513 384 1019 
Q 384 1609 779 1909 
Q 1175 2209 1959 2209 
L 2766 2209 
L 2766 2266 
Q 2766 2663 2505 2880 
Q 2244 3097 1772 3097 
Q 1472 3097 1187 3025 
Q 903 2953 641 2809 
L 641 3341 
Q 956 3463 1253 3523 
Q 1550 3584 1831 3584 
Q 2591 3584 2966 3190 
Q 3341 2797 3341 1997 
z
" id="DejaVuSans-430" transform="scale(0.015625)"/>
      <path d="M 947 1747 
Q 947 1013 1173 702 
Q 1400 391 1784 391 
Q 2091 391 2447 916 
L 2447 2578 
Q 2091 3103 1784 3103 
Q 1400 3103 1173 2792 
Q 947 2481 947 1747 
z
M 2447 -1331 
L 2447 447 
Q 2269 153 2064 31 
Q 1859 -91 1600 -91 
Q 1078 -91 714 392 
Q 350 875 350 1734 
Q 350 2594 714 3089 
Q 1078 3584 1600 3584 
Q 1859 3584 2064 3465 
Q 2269 3347 2447 3053 
L 2447 4666 
L 3025 4666 
L 3025 3053 
Q 3203 3347 3408 3465 
Q 3613 3584 3872 3584 
Q 4394 3584 4758 3089 
Q 5122 2594 5122 1734 
Q 5122 875 4758 392 
Q 4394 -91 3872 -91 
Q 3613 -91 3408 31 
Q 3203 153 3025 447 
L 3025 -1331 
L 2447 -1331 
z
M 4525 1747 
Q 4525 2481 4298 2792 
Q 4072 3103 3688 3103 
Q 3381 3103 3025 2578 
L 3025 916 
Q 3381 391 3688 391 
Q 4072 391 4298 702 
Q 4525 1013 4525 1747 
z
" id="DejaVuSans-444" transform="scale(0.015625)"/>
      <path d="M 3578 3500 
L 3578 0 
L 3006 0 
L 3006 2809 
L 1319 0 
L 581 0 
L 581 3500 
L 1153 3500 
L 1153 697 
L 2838 3500 
L 3578 3500 
z
" id="DejaVuSans-438" transform="scale(0.015625)"/>
      <path d="M 581 3500 
L 1153 3500 
L 1153 1856 
L 2775 3500 
L 3481 3500 
L 2144 2147 
L 3653 0 
L 3009 0 
L 1769 1766 
L 1153 1141 
L 1153 0 
L 581 0 
L 581 3500 
z
" id="DejaVuSans-43a" transform="scale(0.015625)"/>
      <path d="M 2206 1888 
Q 2594 1813 2809 1584 
Q 3025 1356 3025 1019 
Q 3025 478 2622 193 
Q 2219 -91 1475 -91 
Q 1225 -91 961 -47 
Q 697 -3 416 84 
L 416 619 
Q 638 503 903 445 
Q 1169 388 1459 388 
Q 1931 388 2195 563 
Q 2459 738 2459 1019 
Q 2459 1294 2225 1461 
Q 1991 1628 1563 1628 
L 1100 1628 
L 1100 2103 
L 1584 2103 
Q 1947 2103 2158 2242 
Q 2369 2381 2369 2600 
Q 2369 2800 2151 2944 
Q 1934 3088 1563 3088 
Q 1341 3088 1089 3047 
Q 838 3006 534 2916 
L 534 3438 
Q 841 3513 1106 3550 
Q 1372 3588 1609 3588 
Q 2222 3588 2576 3342 
Q 2931 3097 2931 2656 
Q 2931 2366 2743 2164 
Q 2556 1963 2206 1888 
z
" id="DejaVuSans-437" transform="scale(0.015625)"/>
      <path d="M 1181 2491 
Q 1181 2231 1381 2084 
Q 1581 1938 1953 1938 
L 2728 1938 
L 2728 3041 
L 1953 3041 
Q 1581 3041 1381 2897 
Q 1181 2753 1181 2491 
z
M 363 0 
L 1431 1534 
Q 1069 1616 828 1830 
Q 588 2044 588 2491 
Q 588 2997 923 3248 
Q 1259 3500 1938 3500 
L 3306 3500 
L 3306 0 
L 2728 0 
L 2728 1478 
L 2013 1478 
L 981 0 
L 363 0 
z
" id="DejaVuSans-44f" transform="scale(0.015625)"/>
      <path d="M 1384 459 
L 3053 459 
L 3053 3041 
L 1844 3041 
L 1844 2603 
Q 1844 1316 1475 628 
L 1384 459 
z
M 550 459 
Q 834 584 959 850 
Q 1266 1509 1266 2838 
L 1266 3500 
L 3631 3500 
L 3631 459 
L 4091 459 
L 4091 -884 
L 3631 -884 
L 3631 0 
L 794 0 
L 794 -884 
L 334 -884 
L 334 459 
L 550 459 
z
" id="DejaVuSans-434" transform="scale(0.015625)"/>
      <path d="M 1959 3097 
Q 1497 3097 1228 2736 
Q 959 2375 959 1747 
Q 959 1119 1226 758 
Q 1494 397 1959 397 
Q 2419 397 2687 759 
Q 2956 1122 2956 1747 
Q 2956 2369 2687 2733 
Q 2419 3097 1959 3097 
z
M 1959 3584 
Q 2709 3584 3137 3096 
Q 3566 2609 3566 1747 
Q 3566 888 3137 398 
Q 2709 -91 1959 -91 
Q 1206 -91 779 398 
Q 353 888 353 1747 
Q 353 2609 779 3096 
Q 1206 3584 1959 3584 
z
" id="DejaVuSans-43e" transform="scale(0.015625)"/>
      <path d="M 581 3500 
L 1159 3500 
L 1159 2072 
L 3025 2072 
L 3025 3500 
L 3603 3500 
L 3603 0 
L 3025 0 
L 3025 1613 
L 1159 1613 
L 1159 0 
L 581 0 
L 581 3500 
z
" id="DejaVuSans-43d" transform="scale(0.015625)"/>
      <path d="M 3597 1894 
L 3597 1613 
L 953 1613 
Q 991 1019 1311 708 
Q 1631 397 2203 397 
Q 2534 397 2845 478 
Q 3156 559 3463 722 
L 3463 178 
Q 3153 47 2828 -22 
Q 2503 -91 2169 -91 
Q 1331 -91 842 396 
Q 353 884 353 1716 
Q 353 2575 817 3079 
Q 1281 3584 2069 3584 
Q 2775 3584 3186 3129 
Q 3597 2675 3597 1894 
z
M 3022 2063 
Q 3016 2534 2758 2815 
Q 2500 3097 2075 3097 
Q 1594 3097 1305 2825 
Q 1016 2553 972 2059 
L 3022 2063 
z
" id="DejaVuSans-435" transform="scale(0.015625)"/>
      <path d="M 3122 3366 
L 3122 2828 
Q 2878 2963 2633 3030 
Q 2388 3097 2138 3097 
Q 1578 3097 1268 2742 
Q 959 2388 959 1747 
Q 959 1106 1268 751 
Q 1578 397 2138 397 
Q 2388 397 2633 464 
Q 2878 531 3122 666 
L 3122 134 
Q 2881 22 2623 -34 
Q 2366 -91 2075 -91 
Q 1284 -91 818 406 
Q 353 903 353 1747 
Q 353 2603 823 3093 
Q 1294 3584 2113 3584 
Q 2378 3584 2631 3529 
Q 2884 3475 3122 3366 
z
" id="DejaVuSans-441" transform="scale(0.015625)"/>
      <path d="M 188 3500 
L 3541 3500 
L 3541 3041 
L 2147 3041 
L 2147 0 
L 1581 0 
L 1581 3041 
L 188 3041 
L 188 3500 
z
" id="DejaVuSans-442" transform="scale(0.015625)"/>
     </defs>
     <use xlink:href="#DejaVuSans-433"/>
     <use x="52.539062" xlink:href="#DejaVuSans-440"/>
     <use x="116.015625" xlink:href="#DejaVuSans-430"/>
     <use x="177.294922" xlink:href="#DejaVuSans-444"/>
     <use x="262.792969" xlink:href="#DejaVuSans-438"/>
     <use x="327.783203" xlink:href="#DejaVuSans-43a"/>
     <use x="388.183594" xlink:href="#DejaVuSans-20"/>
     <use x="419.970703" xlink:href="#DejaVuSans-437"/>
     <use x="473.144531" xlink:href="#DejaVuSans-430"/>
     <use x="534.423828" xlink:href="#DejaVuSans-440"/>
     <use x="597.900391" xlink:href="#DejaVuSans-44f"/>
     <use x="658.056641" xlink:href="#DejaVuSans-434"/>
     <use x="727.197266" xlink:href="#DejaVuSans-43a"/>
     <use x="787.597656" xlink:href="#DejaVuSans-438"/>
     <use x="852.587891" xlink:href="#DejaVuSans-20"/>
     <use x="884.375" xlink:href="#DejaVuSans-438"/>
     <use x="949.365234" xlink:href="#DejaVuSans-20"/>
     <use x="981.152344" xlink:href="#DejaVuSans-440"/>
     <use x="1044.628906" xlink:href="#DejaVuSans-430"/>
     <use x="1105.908203" xlink:href="#DejaVuSans-437"/>
     <use x="1159.082031" xlink:href="#DejaVuSans-440"/>
     <use x="1222.558594" xlink:href="#DejaVuSans-44f"/>
     <use x="1282.714844" xlink:href="#DejaVuSans-434"/>
     <use x="1351.855469" xlink:href="#DejaVuSans-43a"/>
     <use x="1412.255859" xlink:href="#DejaVuSans-438"/>
     <use x="1477.246094" xlink:href="#DejaVuSans-20"/>
     <use x="1509.033203" xlink:href="#DejaVuSans-43a"/>
     <use x="1569.433594" xlink:href="#DejaVuSans-43e"/>
     <use x="1630.615234" xlink:href="#DejaVuSans-43d"/>
     <use x="1695.996094" xlink:href="#DejaVuSans-434"/>
     <use x="1765.136719" xlink:href="#DejaVuSans-435"/>
     <use x="1826.660156" xlink:href="#DejaVuSans-43d"/>
     <use x="1892.041016" xlink:href="#DejaVuSans-441"/>
     <use x="1947.021484" xlink:href="#DejaVuSans-430"/>
     <use x="2008.300781" xlink:href="#DejaVuSans-442"/>
     <use x="2066.552734" xlink:href="#DejaVuSans-43e"/>
     <use x="2127.734375" xlink:href="#DejaVuSans-440"/>
     <use x="2191.210938" xlink:href="#DejaVuSans-430"/>
    </g>
   </g>
   <g id="legend_1">
    <g id="patch_7">
     <path d="M 252.673813 43.630125 
L 303.716 43.630125 
Q 305.716 43.630125 305.716 41.630125 
L 305.716 27.952 
Q 305.716 25.952 303.716 25.952 
L 252.673813 25.952 
Q 250.673813 25.952 250.673813 27.952 
L 250.673813 41.630125 
Q 250.673813 43.630125 252.673813 43.630125 
z
" style="fill:#ffffff;opacity:0.8;stroke:#cccccc;stroke-linejoin:miter;"/>
    </g>
    <g id="line2d_78">
     <path d="M 254.673813 34.050437 
L 274.673813 34.050437 
" style="fill:none;stroke:#1f77b4;stroke-linecap:square;"/>
    </g>
    <g id="line2d_79">
     <g>
      <use style="fill:#1f77b4;stroke:#1f77b4;stroke-linejoin:miter;" x="264.673813" xlink:href="#meac45610d7" y="34.050437"/>
     </g>
    </g>
    <g id="text_14">
     <!-- U(t) -->
     <g transform="translate(282.673813 37.550437)scale(0.1 -0.1)">
      <defs>
       <path d="M 1984 4856 
Q 1566 4138 1362 3434 
Q 1159 2731 1159 2009 
Q 1159 1288 1364 580 
Q 1569 -128 1984 -844 
L 1484 -844 
Q 1016 -109 783 600 
Q 550 1309 550 2009 
Q 550 2706 781 3412 
Q 1013 4119 1484 4856 
L 1984 4856 
z
" id="DejaVuSans-28" transform="scale(0.015625)"/>
       <path d="M 513 4856 
L 1013 4856 
Q 1481 4119 1714 3412 
Q 1947 2706 1947 2009 
Q 1947 1309 1714 600 
Q 1481 -109 1013 -844 
L 513 -844 
Q 928 -128 1133 580 
Q 1338 1288 1338 2009 
Q 1338 2731 1133 3434 
Q 928 4138 513 4856 
z
" id="DejaVuSans-29" transform="scale(0.015625)"/>
      </defs>
      <use xlink:href="#DejaVuSans-55"/>
      <use x="73.193359" xlink:href="#DejaVuSans-28"/>
      <use x="112.207031" xlink:href="#DejaVuSans-74"/>
      <use x="151.416016" xlink:href="#DejaVuSans-29"/>
     </g>
    </g>
   </g>
  </g>
 </g>
 <defs>
  <clipPath id="p584dfa20c9">
   <rect height="134.442" width="267.561" x="43.155" y="20.952"/>
  </clipPath>
 </defs>
</svg>
