<?xml version="1.0" encoding="utf-8" standalone="no"?>
<!DOCTYPE svg PUBLIC "-//W3C//DTD SVG 1.1//EN"
  "http://www.w3.org/Graphics/SVG/1.1/DTD/svg11.dtd">
<svg height="360pt" version="1.1" viewBox="0 0 432 360" width="432pt" xmlns="http://www.w3.org/2000/svg" xmlns:xlink="http://www.w3.org/1999/xlink">
 <metadata>
  <rdf:RDF xmlns:cc="http://creativecommons.org/ns#" xmlns:dc="http://purl.org/dc/elements/1.1/" xmlns:rdf="http://www.w3.org/1999/02/22-rdf-syntax-ns#">
   <cc:Work>
    <dc:type rdf:resource="http://purl.org/dc/dcmitype/StillImage"/>
    <dc:date>2023-05-17T10:45:35.884802</dc:date>
    <dc:format>image/svg+xml</dc:format>
    <dc:creator>
     <cc:Agent>
      <dc:title>Matplotlib v3.4.3, https://matplotlib.org/</dc:title>
     </cc:Agent>
    </dc:creator>
   </cc:Work>
  </rdf:RDF>
 </metadata>
 <defs>
  <style type="text/css">*{stroke-linecap:butt;stroke-linejoin:round;}</style>
 </defs>
 <g id="figure_1">
  <g id="patch_1">
   <path d="M 0 360 
L 432 360 
L 432 0 
L 0 0 
z
" style="fill:#ffffff;"/>
  </g>
  <g id="axes_1">
   <g id="patch_2">
    <path d="M 54 320.4 
L 388.8 320.4 
L 388.8 43.2 
L 54 43.2 
z
" style="fill:#ffffff;"/>
   </g>
   <g id="matplotlib.axis_1">
    <g id="xtick_1">
     <g id="line2d_1">
      <path clip-path="url(#p6d1ea14a74)" d="M 69.218182 320.4 
L 69.218182 43.2 
" style="fill:none;stroke:#696969;stroke-linecap:square;stroke-width:0.8;"/>
     </g>
     <g id="line2d_2">
      <defs>
       <path d="M 0 0 
L 0 3.5 
" id="m17dc567d9a" style="stroke:#000000;stroke-width:0.8;"/>
      </defs>
      <g>
       <use style="stroke:#000000;stroke-width:0.8;" x="69.218182" xlink:href="#m17dc567d9a" y="320.4"/>
      </g>
     </g>
     <g id="text_1">
      <!-- 0 -->
      <g transform="translate(66.036932 334.998438)scale(0.1 -0.1)">
       <defs>
        <path d="M 2034 4250 
Q 1547 4250 1301 3770 
Q 1056 3291 1056 2328 
Q 1056 1369 1301 889 
Q 1547 409 2034 409 
Q 2525 409 2770 889 
Q 3016 1369 3016 2328 
Q 3016 3291 2770 3770 
Q 2525 4250 2034 4250 
z
M 2034 4750 
Q 2819 4750 3233 4129 
Q 3647 3509 3647 2328 
Q 3647 1150 3233 529 
Q 2819 -91 2034 -91 
Q 1250 -91 836 529 
Q 422 1150 422 2328 
Q 422 3509 836 4129 
Q 1250 4750 2034 4750 
z
" id="DejaVuSans-30" transform="scale(0.015625)"/>
       </defs>
       <use xlink:href="#DejaVuSans-30"/>
      </g>
     </g>
    </g>
    <g id="xtick_2">
     <g id="line2d_3">
      <path clip-path="url(#p6d1ea14a74)" d="M 130.61255 320.4 
L 130.61255 43.2 
" style="fill:none;stroke:#696969;stroke-linecap:square;stroke-width:0.8;"/>
     </g>
     <g id="line2d_4">
      <g>
       <use style="stroke:#000000;stroke-width:0.8;" x="130.61255" xlink:href="#m17dc567d9a" y="320.4"/>
      </g>
     </g>
     <g id="text_2">
      <!-- 20 -->
      <g transform="translate(124.25005 334.998438)scale(0.1 -0.1)">
       <defs>
        <path d="M 1228 531 
L 3431 531 
L 3431 0 
L 469 0 
L 469 531 
Q 828 903 1448 1529 
Q 2069 2156 2228 2338 
Q 2531 2678 2651 2914 
Q 2772 3150 2772 3378 
Q 2772 3750 2511 3984 
Q 2250 4219 1831 4219 
Q 1534 4219 1204 4116 
Q 875 4013 500 3803 
L 500 4441 
Q 881 4594 1212 4672 
Q 1544 4750 1819 4750 
Q 2544 4750 2975 4387 
Q 3406 4025 3406 3419 
Q 3406 3131 3298 2873 
Q 3191 2616 2906 2266 
Q 2828 2175 2409 1742 
Q 1991 1309 1228 531 
z
" id="DejaVuSans-32" transform="scale(0.015625)"/>
       </defs>
       <use xlink:href="#DejaVuSans-32"/>
       <use x="63.623047" xlink:href="#DejaVuSans-30"/>
      </g>
     </g>
    </g>
    <g id="xtick_3">
     <g id="line2d_5">
      <path clip-path="url(#p6d1ea14a74)" d="M 192.006919 320.4 
L 192.006919 43.2 
" style="fill:none;stroke:#696969;stroke-linecap:square;stroke-width:0.8;"/>
     </g>
     <g id="line2d_6">
      <g>
       <use style="stroke:#000000;stroke-width:0.8;" x="192.006919" xlink:href="#m17dc567d9a" y="320.4"/>
      </g>
     </g>
     <g id="text_3">
      <!-- 40 -->
      <g transform="translate(185.644419 334.998438)scale(0.1 -0.1)">
       <defs>
        <path d="M 2419 4116 
L 825 1625 
L 2419 1625 
L 2419 4116 
z
M 2253 4666 
L 3047 4666 
L 3047 1625 
L 3713 1625 
L 3713 1100 
L 3047 1100 
L 3047 0 
L 2419 0 
L 2419 1100 
L 313 1100 
L 313 1709 
L 2253 4666 
z
" id="DejaVuSans-34" transform="scale(0.015625)"/>
       </defs>
       <use xlink:href="#DejaVuSans-34"/>
       <use x="63.623047" xlink:href="#DejaVuSans-30"/>
      </g>
     </g>
    </g>
    <g id="xtick_4">
     <g id="line2d_7">
      <path clip-path="url(#p6d1ea14a74)" d="M 253.401288 320.4 
L 253.401288 43.2 
" style="fill:none;stroke:#696969;stroke-linecap:square;stroke-width:0.8;"/>
     </g>
     <g id="line2d_8">
      <g>
       <use style="stroke:#000000;stroke-width:0.8;" x="253.401288" xlink:href="#m17dc567d9a" y="320.4"/>
      </g>
     </g>
     <g id="text_4">
      <!-- 60 -->
      <g transform="translate(247.038788 334.998438)scale(0.1 -0.1)">
       <defs>
        <path d="M 2113 2584 
Q 1688 2584 1439 2293 
Q 1191 2003 1191 1497 
Q 1191 994 1439 701 
Q 1688 409 2113 409 
Q 2538 409 2786 701 
Q 3034 994 3034 1497 
Q 3034 2003 2786 2293 
Q 2538 2584 2113 2584 
z
M 3366 4563 
L 3366 3988 
Q 3128 4100 2886 4159 
Q 2644 4219 2406 4219 
Q 1781 4219 1451 3797 
Q 1122 3375 1075 2522 
Q 1259 2794 1537 2939 
Q 1816 3084 2150 3084 
Q 2853 3084 3261 2657 
Q 3669 2231 3669 1497 
Q 3669 778 3244 343 
Q 2819 -91 2113 -91 
Q 1303 -91 875 529 
Q 447 1150 447 2328 
Q 447 3434 972 4092 
Q 1497 4750 2381 4750 
Q 2619 4750 2861 4703 
Q 3103 4656 3366 4563 
z
" id="DejaVuSans-36" transform="scale(0.015625)"/>
       </defs>
       <use xlink:href="#DejaVuSans-36"/>
       <use x="63.623047" xlink:href="#DejaVuSans-30"/>
      </g>
     </g>
    </g>
    <g id="xtick_5">
     <g id="line2d_9">
      <path clip-path="url(#p6d1ea14a74)" d="M 314.795656 320.4 
L 314.795656 43.2 
" style="fill:none;stroke:#696969;stroke-linecap:square;stroke-width:0.8;"/>
     </g>
     <g id="line2d_10">
      <g>
       <use style="stroke:#000000;stroke-width:0.8;" x="314.795656" xlink:href="#m17dc567d9a" y="320.4"/>
      </g>
     </g>
     <g id="text_5">
      <!-- 80 -->
      <g transform="translate(308.433156 334.998438)scale(0.1 -0.1)">
       <defs>
        <path d="M 2034 2216 
Q 1584 2216 1326 1975 
Q 1069 1734 1069 1313 
Q 1069 891 1326 650 
Q 1584 409 2034 409 
Q 2484 409 2743 651 
Q 3003 894 3003 1313 
Q 3003 1734 2745 1975 
Q 2488 2216 2034 2216 
z
M 1403 2484 
Q 997 2584 770 2862 
Q 544 3141 544 3541 
Q 544 4100 942 4425 
Q 1341 4750 2034 4750 
Q 2731 4750 3128 4425 
Q 3525 4100 3525 3541 
Q 3525 3141 3298 2862 
Q 3072 2584 2669 2484 
Q 3125 2378 3379 2068 
Q 3634 1759 3634 1313 
Q 3634 634 3220 271 
Q 2806 -91 2034 -91 
Q 1263 -91 848 271 
Q 434 634 434 1313 
Q 434 1759 690 2068 
Q 947 2378 1403 2484 
z
M 1172 3481 
Q 1172 3119 1398 2916 
Q 1625 2713 2034 2713 
Q 2441 2713 2670 2916 
Q 2900 3119 2900 3481 
Q 2900 3844 2670 4047 
Q 2441 4250 2034 4250 
Q 1625 4250 1398 4047 
Q 1172 3844 1172 3481 
z
" id="DejaVuSans-38" transform="scale(0.015625)"/>
       </defs>
       <use xlink:href="#DejaVuSans-38"/>
       <use x="63.623047" xlink:href="#DejaVuSans-30"/>
      </g>
     </g>
    </g>
    <g id="xtick_6">
     <g id="line2d_11">
      <path clip-path="url(#p6d1ea14a74)" d="M 376.190025 320.4 
L 376.190025 43.2 
" style="fill:none;stroke:#696969;stroke-linecap:square;stroke-width:0.8;"/>
     </g>
     <g id="line2d_12">
      <g>
       <use style="stroke:#000000;stroke-width:0.8;" x="376.190025" xlink:href="#m17dc567d9a" y="320.4"/>
      </g>
     </g>
     <g id="text_6">
      <!-- 100 -->
      <g transform="translate(366.646275 334.998438)scale(0.1 -0.1)">
       <defs>
        <path d="M 794 531 
L 1825 531 
L 1825 4091 
L 703 3866 
L 703 4441 
L 1819 4666 
L 2450 4666 
L 2450 531 
L 3481 531 
L 3481 0 
L 794 0 
L 794 531 
z
" id="DejaVuSans-31" transform="scale(0.015625)"/>
       </defs>
       <use xlink:href="#DejaVuSans-31"/>
       <use x="63.623047" xlink:href="#DejaVuSans-30"/>
       <use x="127.246094" xlink:href="#DejaVuSans-30"/>
      </g>
     </g>
    </g>
    <g id="xtick_7">
     <g id="line2d_13">
      <path clip-path="url(#p6d1ea14a74)" d="M 84.566774 320.4 
L 84.566774 43.2 
" style="fill:none;stroke:#d3d3d3;stroke-dasharray:2.96,1.28;stroke-dashoffset:0;stroke-width:0.8;"/>
     </g>
     <g id="line2d_14">
      <defs>
       <path d="M 0 0 
L 0 2 
" id="m6a290bee75" style="stroke:#000000;stroke-width:0.6;"/>
      </defs>
      <g>
       <use style="stroke:#000000;stroke-width:0.6;" x="84.566774" xlink:href="#m6a290bee75" y="320.4"/>
      </g>
     </g>
    </g>
    <g id="xtick_8">
     <g id="line2d_15">
      <path clip-path="url(#p6d1ea14a74)" d="M 99.915366 320.4 
L 99.915366 43.2 
" style="fill:none;stroke:#d3d3d3;stroke-dasharray:2.96,1.28;stroke-dashoffset:0;stroke-width:0.8;"/>
     </g>
     <g id="line2d_16">
      <g>
       <use style="stroke:#000000;stroke-width:0.6;" x="99.915366" xlink:href="#m6a290bee75" y="320.4"/>
      </g>
     </g>
    </g>
    <g id="xtick_9">
     <g id="line2d_17">
      <path clip-path="url(#p6d1ea14a74)" d="M 115.263958 320.4 
L 115.263958 43.2 
" style="fill:none;stroke:#d3d3d3;stroke-dasharray:2.96,1.28;stroke-dashoffset:0;stroke-width:0.8;"/>
     </g>
     <g id="line2d_18">
      <g>
       <use style="stroke:#000000;stroke-width:0.6;" x="115.263958" xlink:href="#m6a290bee75" y="320.4"/>
      </g>
     </g>
    </g>
    <g id="xtick_10">
     <g id="line2d_19">
      <path clip-path="url(#p6d1ea14a74)" d="M 145.961143 320.4 
L 145.961143 43.2 
" style="fill:none;stroke:#d3d3d3;stroke-dasharray:2.96,1.28;stroke-dashoffset:0;stroke-width:0.8;"/>
     </g>
     <g id="line2d_20">
      <g>
       <use style="stroke:#000000;stroke-width:0.6;" x="145.961143" xlink:href="#m6a290bee75" y="320.4"/>
      </g>
     </g>
    </g>
    <g id="xtick_11">
     <g id="line2d_21">
      <path clip-path="url(#p6d1ea14a74)" d="M 161.309735 320.4 
L 161.309735 43.2 
" style="fill:none;stroke:#d3d3d3;stroke-dasharray:2.96,1.28;stroke-dashoffset:0;stroke-width:0.8;"/>
     </g>
     <g id="line2d_22">
      <g>
       <use style="stroke:#000000;stroke-width:0.6;" x="161.309735" xlink:href="#m6a290bee75" y="320.4"/>
      </g>
     </g>
    </g>
    <g id="xtick_12">
     <g id="line2d_23">
      <path clip-path="url(#p6d1ea14a74)" d="M 176.658327 320.4 
L 176.658327 43.2 
" style="fill:none;stroke:#d3d3d3;stroke-dasharray:2.96,1.28;stroke-dashoffset:0;stroke-width:0.8;"/>
     </g>
     <g id="line2d_24">
      <g>
       <use style="stroke:#000000;stroke-width:0.6;" x="176.658327" xlink:href="#m6a290bee75" y="320.4"/>
      </g>
     </g>
    </g>
    <g id="xtick_13">
     <g id="line2d_25">
      <path clip-path="url(#p6d1ea14a74)" d="M 207.355511 320.4 
L 207.355511 43.2 
" style="fill:none;stroke:#d3d3d3;stroke-dasharray:2.96,1.28;stroke-dashoffset:0;stroke-width:0.8;"/>
     </g>
     <g id="line2d_26">
      <g>
       <use style="stroke:#000000;stroke-width:0.6;" x="207.355511" xlink:href="#m6a290bee75" y="320.4"/>
      </g>
     </g>
    </g>
    <g id="xtick_14">
     <g id="line2d_27">
      <path clip-path="url(#p6d1ea14a74)" d="M 222.704103 320.4 
L 222.704103 43.2 
" style="fill:none;stroke:#d3d3d3;stroke-dasharray:2.96,1.28;stroke-dashoffset:0;stroke-width:0.8;"/>
     </g>
     <g id="line2d_28">
      <g>
       <use style="stroke:#000000;stroke-width:0.6;" x="222.704103" xlink:href="#m6a290bee75" y="320.4"/>
      </g>
     </g>
    </g>
    <g id="xtick_15">
     <g id="line2d_29">
      <path clip-path="url(#p6d1ea14a74)" d="M 238.052696 320.4 
L 238.052696 43.2 
" style="fill:none;stroke:#d3d3d3;stroke-dasharray:2.96,1.28;stroke-dashoffset:0;stroke-width:0.8;"/>
     </g>
     <g id="line2d_30">
      <g>
       <use style="stroke:#000000;stroke-width:0.6;" x="238.052696" xlink:href="#m6a290bee75" y="320.4"/>
      </g>
     </g>
    </g>
    <g id="xtick_16">
     <g id="line2d_31">
      <path clip-path="url(#p6d1ea14a74)" d="M 268.74988 320.4 
L 268.74988 43.2 
" style="fill:none;stroke:#d3d3d3;stroke-dasharray:2.96,1.28;stroke-dashoffset:0;stroke-width:0.8;"/>
     </g>
     <g id="line2d_32">
      <g>
       <use style="stroke:#000000;stroke-width:0.6;" x="268.74988" xlink:href="#m6a290bee75" y="320.4"/>
      </g>
     </g>
    </g>
    <g id="xtick_17">
     <g id="line2d_33">
      <path clip-path="url(#p6d1ea14a74)" d="M 284.098472 320.4 
L 284.098472 43.2 
" style="fill:none;stroke:#d3d3d3;stroke-dasharray:2.96,1.28;stroke-dashoffset:0;stroke-width:0.8;"/>
     </g>
     <g id="line2d_34">
      <g>
       <use style="stroke:#000000;stroke-width:0.6;" x="284.098472" xlink:href="#m6a290bee75" y="320.4"/>
      </g>
     </g>
    </g>
    <g id="xtick_18">
     <g id="line2d_35">
      <path clip-path="url(#p6d1ea14a74)" d="M 299.447064 320.4 
L 299.447064 43.2 
" style="fill:none;stroke:#d3d3d3;stroke-dasharray:2.96,1.28;stroke-dashoffset:0;stroke-width:0.8;"/>
     </g>
     <g id="line2d_36">
      <g>
       <use style="stroke:#000000;stroke-width:0.6;" x="299.447064" xlink:href="#m6a290bee75" y="320.4"/>
      </g>
     </g>
    </g>
    <g id="xtick_19">
     <g id="line2d_37">
      <path clip-path="url(#p6d1ea14a74)" d="M 330.144249 320.4 
L 330.144249 43.2 
" style="fill:none;stroke:#d3d3d3;stroke-dasharray:2.96,1.28;stroke-dashoffset:0;stroke-width:0.8;"/>
     </g>
     <g id="line2d_38">
      <g>
       <use style="stroke:#000000;stroke-width:0.6;" x="330.144249" xlink:href="#m6a290bee75" y="320.4"/>
      </g>
     </g>
    </g>
    <g id="xtick_20">
     <g id="line2d_39">
      <path clip-path="url(#p6d1ea14a74)" d="M 345.492841 320.4 
L 345.492841 43.2 
" style="fill:none;stroke:#d3d3d3;stroke-dasharray:2.96,1.28;stroke-dashoffset:0;stroke-width:0.8;"/>
     </g>
     <g id="line2d_40">
      <g>
       <use style="stroke:#000000;stroke-width:0.6;" x="345.492841" xlink:href="#m6a290bee75" y="320.4"/>
      </g>
     </g>
    </g>
    <g id="xtick_21">
     <g id="line2d_41">
      <path clip-path="url(#p6d1ea14a74)" d="M 360.841433 320.4 
L 360.841433 43.2 
" style="fill:none;stroke:#d3d3d3;stroke-dasharray:2.96,1.28;stroke-dashoffset:0;stroke-width:0.8;"/>
     </g>
     <g id="line2d_42">
      <g>
       <use style="stroke:#000000;stroke-width:0.6;" x="360.841433" xlink:href="#m6a290bee75" y="320.4"/>
      </g>
     </g>
    </g>
    <g id="text_7">
     <!-- t, c -->
     <g transform="translate(213.5125 348.676562)scale(0.1 -0.1)">
      <defs>
       <path d="M 1172 4494 
L 1172 3500 
L 2356 3500 
L 2356 3053 
L 1172 3053 
L 1172 1153 
Q 1172 725 1289 603 
Q 1406 481 1766 481 
L 2356 481 
L 2356 0 
L 1766 0 
Q 1100 0 847 248 
Q 594 497 594 1153 
L 594 3053 
L 172 3053 
L 172 3500 
L 594 3500 
L 594 4494 
L 1172 4494 
z
" id="DejaVuSans-74" transform="scale(0.015625)"/>
       <path d="M 750 794 
L 1409 794 
L 1409 256 
L 897 -744 
L 494 -744 
L 750 256 
L 750 794 
z
" id="DejaVuSans-2c" transform="scale(0.015625)"/>
       <path id="DejaVuSans-20" transform="scale(0.015625)"/>
       <path d="M 3122 3366 
L 3122 2828 
Q 2878 2963 2633 3030 
Q 2388 3097 2138 3097 
Q 1578 3097 1268 2742 
Q 959 2388 959 1747 
Q 959 1106 1268 751 
Q 1578 397 2138 397 
Q 2388 397 2633 464 
Q 2878 531 3122 666 
L 3122 134 
Q 2881 22 2623 -34 
Q 2366 -91 2075 -91 
Q 1284 -91 818 406 
Q 353 903 353 1747 
Q 353 2603 823 3093 
Q 1294 3584 2113 3584 
Q 2378 3584 2631 3529 
Q 2884 3475 3122 3366 
z
" id="DejaVuSans-63" transform="scale(0.015625)"/>
      </defs>
      <use xlink:href="#DejaVuSans-74"/>
      <use x="39.208984" xlink:href="#DejaVuSans-2c"/>
      <use x="70.996094" xlink:href="#DejaVuSans-20"/>
      <use x="102.783203" xlink:href="#DejaVuSans-63"/>
     </g>
    </g>
   </g>
   <g id="matplotlib.axis_2">
    <g id="ytick_1">
     <g id="line2d_43">
      <path clip-path="url(#p6d1ea14a74)" d="M 54 307.8 
L 388.8 307.8 
" style="fill:none;stroke:#696969;stroke-linecap:square;stroke-width:0.8;"/>
     </g>
     <g id="line2d_44">
      <defs>
       <path d="M 0 0 
L -3.5 0 
" id="m905226f0af" style="stroke:#000000;stroke-width:0.8;"/>
      </defs>
      <g>
       <use style="stroke:#000000;stroke-width:0.8;" x="54" xlink:href="#m905226f0af" y="307.8"/>
      </g>
     </g>
     <g id="text_8">
      <!-- 0.0 -->
      <g transform="translate(31.096875 311.599219)scale(0.1 -0.1)">
       <defs>
        <path d="M 684 794 
L 1344 794 
L 1344 0 
L 684 0 
L 684 794 
z
" id="DejaVuSans-2e" transform="scale(0.015625)"/>
       </defs>
       <use xlink:href="#DejaVuSans-30"/>
       <use x="63.623047" xlink:href="#DejaVuSans-2e"/>
       <use x="95.410156" xlink:href="#DejaVuSans-30"/>
      </g>
     </g>
    </g>
    <g id="ytick_2">
     <g id="line2d_45">
      <path clip-path="url(#p6d1ea14a74)" d="M 54 268.05974 
L 388.8 268.05974 
" style="fill:none;stroke:#696969;stroke-linecap:square;stroke-width:0.8;"/>
     </g>
     <g id="line2d_46">
      <g>
       <use style="stroke:#000000;stroke-width:0.8;" x="54" xlink:href="#m905226f0af" y="268.05974"/>
      </g>
     </g>
     <g id="text_9">
      <!-- 0.5 -->
      <g transform="translate(31.096875 271.858959)scale(0.1 -0.1)">
       <defs>
        <path d="M 691 4666 
L 3169 4666 
L 3169 4134 
L 1269 4134 
L 1269 2991 
Q 1406 3038 1543 3061 
Q 1681 3084 1819 3084 
Q 2600 3084 3056 2656 
Q 3513 2228 3513 1497 
Q 3513 744 3044 326 
Q 2575 -91 1722 -91 
Q 1428 -91 1123 -41 
Q 819 9 494 109 
L 494 744 
Q 775 591 1075 516 
Q 1375 441 1709 441 
Q 2250 441 2565 725 
Q 2881 1009 2881 1497 
Q 2881 1984 2565 2268 
Q 2250 2553 1709 2553 
Q 1456 2553 1204 2497 
Q 953 2441 691 2322 
L 691 4666 
z
" id="DejaVuSans-35" transform="scale(0.015625)"/>
       </defs>
       <use xlink:href="#DejaVuSans-30"/>
       <use x="63.623047" xlink:href="#DejaVuSans-2e"/>
       <use x="95.410156" xlink:href="#DejaVuSans-35"/>
      </g>
     </g>
    </g>
    <g id="ytick_3">
     <g id="line2d_47">
      <path clip-path="url(#p6d1ea14a74)" d="M 54 228.319481 
L 388.8 228.319481 
" style="fill:none;stroke:#696969;stroke-linecap:square;stroke-width:0.8;"/>
     </g>
     <g id="line2d_48">
      <g>
       <use style="stroke:#000000;stroke-width:0.8;" x="54" xlink:href="#m905226f0af" y="228.319481"/>
      </g>
     </g>
     <g id="text_10">
      <!-- 1.0 -->
      <g transform="translate(31.096875 232.118699)scale(0.1 -0.1)">
       <use xlink:href="#DejaVuSans-31"/>
       <use x="63.623047" xlink:href="#DejaVuSans-2e"/>
       <use x="95.410156" xlink:href="#DejaVuSans-30"/>
      </g>
     </g>
    </g>
    <g id="ytick_4">
     <g id="line2d_49">
      <path clip-path="url(#p6d1ea14a74)" d="M 54 188.579221 
L 388.8 188.579221 
" style="fill:none;stroke:#696969;stroke-linecap:square;stroke-width:0.8;"/>
     </g>
     <g id="line2d_50">
      <g>
       <use style="stroke:#000000;stroke-width:0.8;" x="54" xlink:href="#m905226f0af" y="188.579221"/>
      </g>
     </g>
     <g id="text_11">
      <!-- 1.5 -->
      <g transform="translate(31.096875 192.37844)scale(0.1 -0.1)">
       <use xlink:href="#DejaVuSans-31"/>
       <use x="63.623047" xlink:href="#DejaVuSans-2e"/>
       <use x="95.410156" xlink:href="#DejaVuSans-35"/>
      </g>
     </g>
    </g>
    <g id="ytick_5">
     <g id="line2d_51">
      <path clip-path="url(#p6d1ea14a74)" d="M 54 148.838961 
L 388.8 148.838961 
" style="fill:none;stroke:#696969;stroke-linecap:square;stroke-width:0.8;"/>
     </g>
     <g id="line2d_52">
      <g>
       <use style="stroke:#000000;stroke-width:0.8;" x="54" xlink:href="#m905226f0af" y="148.838961"/>
      </g>
     </g>
     <g id="text_12">
      <!-- 2.0 -->
      <g transform="translate(31.096875 152.63818)scale(0.1 -0.1)">
       <use xlink:href="#DejaVuSans-32"/>
       <use x="63.623047" xlink:href="#DejaVuSans-2e"/>
       <use x="95.410156" xlink:href="#DejaVuSans-30"/>
      </g>
     </g>
    </g>
    <g id="ytick_6">
     <g id="line2d_53">
      <path clip-path="url(#p6d1ea14a74)" d="M 54 109.098701 
L 388.8 109.098701 
" style="fill:none;stroke:#696969;stroke-linecap:square;stroke-width:0.8;"/>
     </g>
     <g id="line2d_54">
      <g>
       <use style="stroke:#000000;stroke-width:0.8;" x="54" xlink:href="#m905226f0af" y="109.098701"/>
      </g>
     </g>
     <g id="text_13">
      <!-- 2.5 -->
      <g transform="translate(31.096875 112.89792)scale(0.1 -0.1)">
       <use xlink:href="#DejaVuSans-32"/>
       <use x="63.623047" xlink:href="#DejaVuSans-2e"/>
       <use x="95.410156" xlink:href="#DejaVuSans-35"/>
      </g>
     </g>
    </g>
    <g id="ytick_7">
     <g id="line2d_55">
      <path clip-path="url(#p6d1ea14a74)" d="M 54 69.358442 
L 388.8 69.358442 
" style="fill:none;stroke:#696969;stroke-linecap:square;stroke-width:0.8;"/>
     </g>
     <g id="line2d_56">
      <g>
       <use style="stroke:#000000;stroke-width:0.8;" x="54" xlink:href="#m905226f0af" y="69.358442"/>
      </g>
     </g>
     <g id="text_14">
      <!-- 3.0 -->
      <g transform="translate(31.096875 73.15766)scale(0.1 -0.1)">
       <defs>
        <path d="M 2597 2516 
Q 3050 2419 3304 2112 
Q 3559 1806 3559 1356 
Q 3559 666 3084 287 
Q 2609 -91 1734 -91 
Q 1441 -91 1130 -33 
Q 819 25 488 141 
L 488 750 
Q 750 597 1062 519 
Q 1375 441 1716 441 
Q 2309 441 2620 675 
Q 2931 909 2931 1356 
Q 2931 1769 2642 2001 
Q 2353 2234 1838 2234 
L 1294 2234 
L 1294 2753 
L 1863 2753 
Q 2328 2753 2575 2939 
Q 2822 3125 2822 3475 
Q 2822 3834 2567 4026 
Q 2313 4219 1838 4219 
Q 1578 4219 1281 4162 
Q 984 4106 628 3988 
L 628 4550 
Q 988 4650 1302 4700 
Q 1616 4750 1894 4750 
Q 2613 4750 3031 4423 
Q 3450 4097 3450 3541 
Q 3450 3153 3228 2886 
Q 3006 2619 2597 2516 
z
" id="DejaVuSans-33" transform="scale(0.015625)"/>
       </defs>
       <use xlink:href="#DejaVuSans-33"/>
       <use x="63.623047" xlink:href="#DejaVuSans-2e"/>
       <use x="95.410156" xlink:href="#DejaVuSans-30"/>
      </g>
     </g>
    </g>
    <g id="ytick_8">
     <g id="line2d_57">
      <path clip-path="url(#p6d1ea14a74)" d="M 54 315.748052 
L 388.8 315.748052 
" style="fill:none;stroke:#d3d3d3;stroke-dasharray:2.96,1.28;stroke-dashoffset:0;stroke-width:0.8;"/>
     </g>
     <g id="line2d_58">
      <defs>
       <path d="M 0 0 
L -2 0 
" id="m5f168c41c4" style="stroke:#000000;stroke-width:0.6;"/>
      </defs>
      <g>
       <use style="stroke:#000000;stroke-width:0.6;" x="54" xlink:href="#m5f168c41c4" y="315.748052"/>
      </g>
     </g>
    </g>
    <g id="ytick_9">
     <g id="line2d_59">
      <path clip-path="url(#p6d1ea14a74)" d="M 54 299.851948 
L 388.8 299.851948 
" style="fill:none;stroke:#d3d3d3;stroke-dasharray:2.96,1.28;stroke-dashoffset:0;stroke-width:0.8;"/>
     </g>
     <g id="line2d_60">
      <g>
       <use style="stroke:#000000;stroke-width:0.6;" x="54" xlink:href="#m5f168c41c4" y="299.851948"/>
      </g>
     </g>
    </g>
    <g id="ytick_10">
     <g id="line2d_61">
      <path clip-path="url(#p6d1ea14a74)" d="M 54 291.903896 
L 388.8 291.903896 
" style="fill:none;stroke:#d3d3d3;stroke-dasharray:2.96,1.28;stroke-dashoffset:0;stroke-width:0.8;"/>
     </g>
     <g id="line2d_62">
      <g>
       <use style="stroke:#000000;stroke-width:0.6;" x="54" xlink:href="#m5f168c41c4" y="291.903896"/>
      </g>
     </g>
    </g>
    <g id="ytick_11">
     <g id="line2d_63">
      <path clip-path="url(#p6d1ea14a74)" d="M 54 283.955844 
L 388.8 283.955844 
" style="fill:none;stroke:#d3d3d3;stroke-dasharray:2.96,1.28;stroke-dashoffset:0;stroke-width:0.8;"/>
     </g>
     <g id="line2d_64">
      <g>
       <use style="stroke:#000000;stroke-width:0.6;" x="54" xlink:href="#m5f168c41c4" y="283.955844"/>
      </g>
     </g>
    </g>
    <g id="ytick_12">
     <g id="line2d_65">
      <path clip-path="url(#p6d1ea14a74)" d="M 54 276.007792 
L 388.8 276.007792 
" style="fill:none;stroke:#d3d3d3;stroke-dasharray:2.96,1.28;stroke-dashoffset:0;stroke-width:0.8;"/>
     </g>
     <g id="line2d_66">
      <g>
       <use style="stroke:#000000;stroke-width:0.6;" x="54" xlink:href="#m5f168c41c4" y="276.007792"/>
      </g>
     </g>
    </g>
    <g id="ytick_13">
     <g id="line2d_67">
      <path clip-path="url(#p6d1ea14a74)" d="M 54 260.111688 
L 388.8 260.111688 
" style="fill:none;stroke:#d3d3d3;stroke-dasharray:2.96,1.28;stroke-dashoffset:0;stroke-width:0.8;"/>
     </g>
     <g id="line2d_68">
      <g>
       <use style="stroke:#000000;stroke-width:0.6;" x="54" xlink:href="#m5f168c41c4" y="260.111688"/>
      </g>
     </g>
    </g>
    <g id="ytick_14">
     <g id="line2d_69">
      <path clip-path="url(#p6d1ea14a74)" d="M 54 252.163636 
L 388.8 252.163636 
" style="fill:none;stroke:#d3d3d3;stroke-dasharray:2.96,1.28;stroke-dashoffset:0;stroke-width:0.8;"/>
     </g>
     <g id="line2d_70">
      <g>
       <use style="stroke:#000000;stroke-width:0.6;" x="54" xlink:href="#m5f168c41c4" y="252.163636"/>
      </g>
     </g>
    </g>
    <g id="ytick_15">
     <g id="line2d_71">
      <path clip-path="url(#p6d1ea14a74)" d="M 54 244.215584 
L 388.8 244.215584 
" style="fill:none;stroke:#d3d3d3;stroke-dasharray:2.96,1.28;stroke-dashoffset:0;stroke-width:0.8;"/>
     </g>
     <g id="line2d_72">
      <g>
       <use style="stroke:#000000;stroke-width:0.6;" x="54" xlink:href="#m5f168c41c4" y="244.215584"/>
      </g>
     </g>
    </g>
    <g id="ytick_16">
     <g id="line2d_73">
      <path clip-path="url(#p6d1ea14a74)" d="M 54 236.267532 
L 388.8 236.267532 
" style="fill:none;stroke:#d3d3d3;stroke-dasharray:2.96,1.28;stroke-dashoffset:0;stroke-width:0.8;"/>
     </g>
     <g id="line2d_74">
      <g>
       <use style="stroke:#000000;stroke-width:0.6;" x="54" xlink:href="#m5f168c41c4" y="236.267532"/>
      </g>
     </g>
    </g>
    <g id="ytick_17">
     <g id="line2d_75">
      <path clip-path="url(#p6d1ea14a74)" d="M 54 220.371429 
L 388.8 220.371429 
" style="fill:none;stroke:#d3d3d3;stroke-dasharray:2.96,1.28;stroke-dashoffset:0;stroke-width:0.8;"/>
     </g>
     <g id="line2d_76">
      <g>
       <use style="stroke:#000000;stroke-width:0.6;" x="54" xlink:href="#m5f168c41c4" y="220.371429"/>
      </g>
     </g>
    </g>
    <g id="ytick_18">
     <g id="line2d_77">
      <path clip-path="url(#p6d1ea14a74)" d="M 54 212.423377 
L 388.8 212.423377 
" style="fill:none;stroke:#d3d3d3;stroke-dasharray:2.96,1.28;stroke-dashoffset:0;stroke-width:0.8;"/>
     </g>
     <g id="line2d_78">
      <g>
       <use style="stroke:#000000;stroke-width:0.6;" x="54" xlink:href="#m5f168c41c4" y="212.423377"/>
      </g>
     </g>
    </g>
    <g id="ytick_19">
     <g id="line2d_79">
      <path clip-path="url(#p6d1ea14a74)" d="M 54 204.475325 
L 388.8 204.475325 
" style="fill:none;stroke:#d3d3d3;stroke-dasharray:2.96,1.28;stroke-dashoffset:0;stroke-width:0.8;"/>
     </g>
     <g id="line2d_80">
      <g>
       <use style="stroke:#000000;stroke-width:0.6;" x="54" xlink:href="#m5f168c41c4" y="204.475325"/>
      </g>
     </g>
    </g>
    <g id="ytick_20">
     <g id="line2d_81">
      <path clip-path="url(#p6d1ea14a74)" d="M 54 196.527273 
L 388.8 196.527273 
" style="fill:none;stroke:#d3d3d3;stroke-dasharray:2.96,1.28;stroke-dashoffset:0;stroke-width:0.8;"/>
     </g>
     <g id="line2d_82">
      <g>
       <use style="stroke:#000000;stroke-width:0.6;" x="54" xlink:href="#m5f168c41c4" y="196.527273"/>
      </g>
     </g>
    </g>
    <g id="ytick_21">
     <g id="line2d_83">
      <path clip-path="url(#p6d1ea14a74)" d="M 54 180.631169 
L 388.8 180.631169 
" style="fill:none;stroke:#d3d3d3;stroke-dasharray:2.96,1.28;stroke-dashoffset:0;stroke-width:0.8;"/>
     </g>
     <g id="line2d_84">
      <g>
       <use style="stroke:#000000;stroke-width:0.6;" x="54" xlink:href="#m5f168c41c4" y="180.631169"/>
      </g>
     </g>
    </g>
    <g id="ytick_22">
     <g id="line2d_85">
      <path clip-path="url(#p6d1ea14a74)" d="M 54 172.683117 
L 388.8 172.683117 
" style="fill:none;stroke:#d3d3d3;stroke-dasharray:2.96,1.28;stroke-dashoffset:0;stroke-width:0.8;"/>
     </g>
     <g id="line2d_86">
      <g>
       <use style="stroke:#000000;stroke-width:0.6;" x="54" xlink:href="#m5f168c41c4" y="172.683117"/>
      </g>
     </g>
    </g>
    <g id="ytick_23">
     <g id="line2d_87">
      <path clip-path="url(#p6d1ea14a74)" d="M 54 164.735065 
L 388.8 164.735065 
" style="fill:none;stroke:#d3d3d3;stroke-dasharray:2.96,1.28;stroke-dashoffset:0;stroke-width:0.8;"/>
     </g>
     <g id="line2d_88">
      <g>
       <use style="stroke:#000000;stroke-width:0.6;" x="54" xlink:href="#m5f168c41c4" y="164.735065"/>
      </g>
     </g>
    </g>
    <g id="ytick_24">
     <g id="line2d_89">
      <path clip-path="url(#p6d1ea14a74)" d="M 54 156.787013 
L 388.8 156.787013 
" style="fill:none;stroke:#d3d3d3;stroke-dasharray:2.96,1.28;stroke-dashoffset:0;stroke-width:0.8;"/>
     </g>
     <g id="line2d_90">
      <g>
       <use style="stroke:#000000;stroke-width:0.6;" x="54" xlink:href="#m5f168c41c4" y="156.787013"/>
      </g>
     </g>
    </g>
    <g id="ytick_25">
     <g id="line2d_91">
      <path clip-path="url(#p6d1ea14a74)" d="M 54 140.890909 
L 388.8 140.890909 
" style="fill:none;stroke:#d3d3d3;stroke-dasharray:2.96,1.28;stroke-dashoffset:0;stroke-width:0.8;"/>
     </g>
     <g id="line2d_92">
      <g>
       <use style="stroke:#000000;stroke-width:0.6;" x="54" xlink:href="#m5f168c41c4" y="140.890909"/>
      </g>
     </g>
    </g>
    <g id="ytick_26">
     <g id="line2d_93">
      <path clip-path="url(#p6d1ea14a74)" d="M 54 132.942857 
L 388.8 132.942857 
" style="fill:none;stroke:#d3d3d3;stroke-dasharray:2.96,1.28;stroke-dashoffset:0;stroke-width:0.8;"/>
     </g>
     <g id="line2d_94">
      <g>
       <use style="stroke:#000000;stroke-width:0.6;" x="54" xlink:href="#m5f168c41c4" y="132.942857"/>
      </g>
     </g>
    </g>
    <g id="ytick_27">
     <g id="line2d_95">
      <path clip-path="url(#p6d1ea14a74)" d="M 54 124.994805 
L 388.8 124.994805 
" style="fill:none;stroke:#d3d3d3;stroke-dasharray:2.96,1.28;stroke-dashoffset:0;stroke-width:0.8;"/>
     </g>
     <g id="line2d_96">
      <g>
       <use style="stroke:#000000;stroke-width:0.6;" x="54" xlink:href="#m5f168c41c4" y="124.994805"/>
      </g>
     </g>
    </g>
    <g id="ytick_28">
     <g id="line2d_97">
      <path clip-path="url(#p6d1ea14a74)" d="M 54 117.046753 
L 388.8 117.046753 
" style="fill:none;stroke:#d3d3d3;stroke-dasharray:2.96,1.28;stroke-dashoffset:0;stroke-width:0.8;"/>
     </g>
     <g id="line2d_98">
      <g>
       <use style="stroke:#000000;stroke-width:0.6;" x="54" xlink:href="#m5f168c41c4" y="117.046753"/>
      </g>
     </g>
    </g>
    <g id="ytick_29">
     <g id="line2d_99">
      <path clip-path="url(#p6d1ea14a74)" d="M 54 101.150649 
L 388.8 101.150649 
" style="fill:none;stroke:#d3d3d3;stroke-dasharray:2.96,1.28;stroke-dashoffset:0;stroke-width:0.8;"/>
     </g>
     <g id="line2d_100">
      <g>
       <use style="stroke:#000000;stroke-width:0.6;" x="54" xlink:href="#m5f168c41c4" y="101.150649"/>
      </g>
     </g>
    </g>
    <g id="ytick_30">
     <g id="line2d_101">
      <path clip-path="url(#p6d1ea14a74)" d="M 54 93.202597 
L 388.8 93.202597 
" style="fill:none;stroke:#d3d3d3;stroke-dasharray:2.96,1.28;stroke-dashoffset:0;stroke-width:0.8;"/>
     </g>
     <g id="line2d_102">
      <g>
       <use style="stroke:#000000;stroke-width:0.6;" x="54" xlink:href="#m5f168c41c4" y="93.202597"/>
      </g>
     </g>
    </g>
    <g id="ytick_31">
     <g id="line2d_103">
      <path clip-path="url(#p6d1ea14a74)" d="M 54 85.254545 
L 388.8 85.254545 
" style="fill:none;stroke:#d3d3d3;stroke-dasharray:2.96,1.28;stroke-dashoffset:0;stroke-width:0.8;"/>
     </g>
     <g id="line2d_104">
      <g>
       <use style="stroke:#000000;stroke-width:0.6;" x="54" xlink:href="#m5f168c41c4" y="85.254545"/>
      </g>
     </g>
    </g>
    <g id="ytick_32">
     <g id="line2d_105">
      <path clip-path="url(#p6d1ea14a74)" d="M 54 77.306494 
L 388.8 77.306494 
" style="fill:none;stroke:#d3d3d3;stroke-dasharray:2.96,1.28;stroke-dashoffset:0;stroke-width:0.8;"/>
     </g>
     <g id="line2d_106">
      <g>
       <use style="stroke:#000000;stroke-width:0.6;" x="54" xlink:href="#m5f168c41c4" y="77.306494"/>
      </g>
     </g>
    </g>
    <g id="ytick_33">
     <g id="line2d_107">
      <path clip-path="url(#p6d1ea14a74)" d="M 54 61.41039 
L 388.8 61.41039 
" style="fill:none;stroke:#d3d3d3;stroke-dasharray:2.96,1.28;stroke-dashoffset:0;stroke-width:0.8;"/>
     </g>
     <g id="line2d_108">
      <g>
       <use style="stroke:#000000;stroke-width:0.6;" x="54" xlink:href="#m5f168c41c4" y="61.41039"/>
      </g>
     </g>
    </g>
    <g id="ytick_34">
     <g id="line2d_109">
      <path clip-path="url(#p6d1ea14a74)" d="M 54 53.462338 
L 388.8 53.462338 
" style="fill:none;stroke:#d3d3d3;stroke-dasharray:2.96,1.28;stroke-dashoffset:0;stroke-width:0.8;"/>
     </g>
     <g id="line2d_110">
      <g>
       <use style="stroke:#000000;stroke-width:0.6;" x="54" xlink:href="#m5f168c41c4" y="53.462338"/>
      </g>
     </g>
    </g>
    <g id="ytick_35">
     <g id="line2d_111">
      <path clip-path="url(#p6d1ea14a74)" d="M 54 45.514286 
L 388.8 45.514286 
" style="fill:none;stroke:#d3d3d3;stroke-dasharray:2.96,1.28;stroke-dashoffset:0;stroke-width:0.8;"/>
     </g>
     <g id="line2d_112">
      <g>
       <use style="stroke:#000000;stroke-width:0.6;" x="54" xlink:href="#m5f168c41c4" y="45.514286"/>
      </g>
     </g>
    </g>
    <g id="text_15">
     <!-- U, V -->
     <g transform="translate(25.017187 192.057812)rotate(-90)scale(0.1 -0.1)">
      <defs>
       <path d="M 556 4666 
L 1191 4666 
L 1191 1831 
Q 1191 1081 1462 751 
Q 1734 422 2344 422 
Q 2950 422 3222 751 
Q 3494 1081 3494 1831 
L 3494 4666 
L 4128 4666 
L 4128 1753 
Q 4128 841 3676 375 
Q 3225 -91 2344 -91 
Q 1459 -91 1007 375 
Q 556 841 556 1753 
L 556 4666 
z
" id="DejaVuSans-55" transform="scale(0.015625)"/>
       <path d="M 1831 0 
L 50 4666 
L 709 4666 
L 2188 738 
L 3669 4666 
L 4325 4666 
L 2547 0 
L 1831 0 
z
" id="DejaVuSans-56" transform="scale(0.015625)"/>
      </defs>
      <use xlink:href="#DejaVuSans-55"/>
      <use x="73.193359" xlink:href="#DejaVuSans-2c"/>
      <use x="104.980469" xlink:href="#DejaVuSans-20"/>
      <use x="136.767578" xlink:href="#DejaVuSans-56"/>
     </g>
    </g>
   </g>
   <g id="line2d_113">
    <path clip-path="url(#p6d1ea14a74)" d="M 69.218182 307.8 
L 69.768568 297.514286 
L 70.318954 297.514286 
L 71.419727 295.457143 
L 71.970113 295.457143 
L 73.070886 293.4 
L 73.621272 291.342857 
L 75.272431 288.257143 
L 75.822818 288.257143 
L 76.373204 287.228571 
L 77.473977 283.114286 
L 78.024363 283.114286 
L 79.125136 279 
L 80.225908 276.942857 
L 80.776295 274.885714 
L 81.326681 273.857143 
L 81.877067 271.8 
L 82.427454 270.771429 
L 84.628999 262.542857 
L 85.179385 261.514286 
L 85.729771 259.457143 
L 86.280158 256.371429 
L 87.931317 250.2 
L 88.481703 247.114286 
L 89.582476 243 
L 90.132862 239.914286 
L 90.683248 237.857143 
L 91.233635 234.771429 
L 91.784021 232.714286 
L 92.884794 226.542857 
L 93.985566 222.428571 
L 94.535953 218.314286 
L 95.636725 212.142857 
L 96.187112 210.085714 
L 100.039816 188.485714 
L 100.590202 184.371429 
L 101.140589 182.314286 
L 101.690975 178.2 
L 102.241361 175.114286 
L 102.791747 171 
L 103.342134 168.942857 
L 103.89252 164.828571 
L 104.442906 162.771429 
L 104.993293 158.657143 
L 105.543679 155.571429 
L 106.094065 166.885714 
L 106.644452 150.428571 
L 108.295611 141.171429 
L 108.845997 139.114286 
L 110.497156 129.857143 
L 111.047542 127.8 
L 111.597929 124.714286 
L 112.698701 120.6 
L 113.799474 114.428571 
L 116.551406 104.142857 
L 117.101792 103.114286 
L 117.652178 100.028571 
L 118.202565 97.971429 
L 118.752951 96.942857 
L 119.853723 92.828571 
L 120.40411 91.8 
L 120.954496 88.714286 
L 122.605655 85.628571 
L 123.156041 83.571429 
L 123.706428 82.542857 
L 124.256814 80.485714 
L 125.907973 77.4 
L 126.458359 75.342857 
L 127.559132 73.285714 
L 128.109518 73.285714 
L 129.210291 71.228571 
L 129.760677 69.171429 
L 130.311064 69.171429 
L 130.86145 68.142857 
L 131.411836 68.142857 
L 131.962223 103.114286 
L 132.512609 66.085714 
L 133.062995 65.057143 
L 133.613382 65.057143 
L 134.163768 64.028571 
L 134.714154 64.028571 
L 136.365313 60.942857 
L 136.915699 61.971429 
L 137.466086 60.942857 
L 138.016472 60.942857 
L 139.117245 58.885714 
L 139.667631 58.885714 
L 140.218017 57.857143 
L 140.768404 58.885714 
L 141.869176 56.828571 
L 142.419563 56.828571 
L 142.969949 55.8 
L 143.520335 68.142857 
L 145.171494 95.914286 
L 146.822653 116.485714 
L 148.473812 133.971429 
L 150.675358 153.514286 
L 151.77613 161.742857 
L 152.326517 164.828571 
L 152.876903 168.942857 
L 153.977675 175.114286 
L 154.528062 179.228571 
L 155.078448 181.285714 
L 156.179221 187.457143 
L 156.729607 189.514286 
L 157.279993 192.6 
L 161.132698 207 
L 161.683084 208.028571 
L 163.334243 214.2 
L 163.884629 215.228571 
L 164.435016 217.285714 
L 166.086175 220.371429 
L 166.636561 222.428571 
L 167.186947 223.457143 
L 167.737334 225.514286 
L 169.388493 228.6 
L 169.938879 228.6 
L 171.039651 230.657143 
L 171.590038 232.714286 
L 172.69081 234.771429 
L 173.241197 234.771429 
L 176.543515 240.942857 
L 177.093901 240.942857 
L 179.295446 245.057143 
L 179.845833 245.057143 
L 180.396219 246.085714 
L 180.946605 246.085714 
L 182.047378 248.142857 
L 182.597764 248.142857 
L 183.148151 249.171429 
L 183.698537 249.171429 
L 184.248923 250.2 
L 184.79931 250.2 
L 186.450469 253.285714 
L 187.551241 253.285714 
L 188.101627 254.314286 
L 189.2024 254.314286 
L 190.303173 256.371429 
L 191.403945 256.371429 
L 191.954332 257.4 
L 192.504718 257.4 
L 193.605491 259.457143 
L 194.706263 259.457143 
L 195.25665 260.485714 
L 196.357422 260.485714 
L 196.907809 261.514286 
L 198.558968 261.514286 
L 199.65974 263.571429 
L 200.760513 263.571429 
L 201.310899 264.6 
L 202.411672 264.6 
L 202.962058 265.628571 
L 204.062831 265.628571 
L 204.613217 266.657143 
L 206.264376 266.657143 
L 206.814762 267.685714 
L 208.465921 267.685714 
L 209.016308 268.714286 
L 210.667467 268.714286 
L 211.217853 269.742857 
L 212.869012 269.742857 
L 213.419398 270.771429 
L 215.070557 270.771429 
L 215.620944 271.8 
L 216.17133 271.8 
L 216.721716 272.828571 
L 219.473648 272.828571 
L 220.024034 273.857143 
L 222.775966 273.857143 
L 223.326352 274.885714 
L 224.427125 274.885714 
L 224.977511 275.914286 
L 227.729443 275.914286 
L 228.279829 276.942857 
L 228.830215 275.914286 
L 229.380602 276.942857 
L 230.481374 276.942857 
L 231.031761 277.971429 
L 232.132533 277.971429 
L 232.68292 276.942857 
L 233.233306 277.971429 
L 234.884465 277.971429 
L 235.434851 279 
L 235.985238 279 
L 236.535624 280.028571 
L 237.08601 279 
L 237.636397 279 
L 238.186783 280.028571 
L 238.737169 279 
L 239.837942 281.057143 
L 240.388328 280.028571 
L 240.938714 280.028571 
L 241.489101 281.057143 
L 242.589873 281.057143 
L 243.14026 280.028571 
L 244.241032 282.085714 
L 244.791419 281.057143 
L 246.992964 281.057143 
L 247.54335 282.085714 
L 248.644123 282.085714 
L 249.194509 283.114286 
L 249.744896 282.085714 
L 250.845668 282.085714 
L 251.396055 283.114286 
L 255.248759 283.114286 
L 255.799145 284.142857 
L 256.349531 283.114286 
L 256.899918 284.142857 
L 257.450304 283.114286 
L 258.00069 284.142857 
L 258.551077 284.142857 
L 259.101463 285.171429 
L 259.651849 284.142857 
L 261.303008 284.142857 
L 261.853395 285.171429 
L 262.954167 285.171429 
L 263.504554 286.2 
L 264.05494 285.171429 
L 267.357258 285.171429 
L 267.907644 286.2 
L 270.659576 286.2 
L 271.209962 287.228571 
L 271.760349 286.2 
L 272.861121 286.2 
L 273.411507 287.228571 
L 273.961894 287.228571 
L 274.51228 286.2 
L 275.062666 286.2 
L 276.163439 288.257143 
L 276.713825 287.228571 
L 279.465757 287.228571 
L 280.016143 288.257143 
L 280.56653 287.228571 
L 281.116916 288.257143 
L 281.667302 288.257143 
L 282.217689 287.228571 
L 283.868848 287.228571 
L 284.419234 288.257143 
L 286.070393 288.257143 
L 286.620779 289.285714 
L 287.171166 288.257143 
L 287.721552 288.257143 
L 288.271938 289.285714 
L 288.822325 289.285714 
L 289.372711 288.257143 
L 289.923097 289.285714 
L 293.775801 289.285714 
L 294.326188 290.314286 
L 295.977347 290.314286 
L 296.527733 289.285714 
L 298.178892 289.285714 
L 298.729278 290.314286 
L 299.279665 289.285714 
L 299.830051 290.314286 
L 303.132369 290.314286 
L 303.682755 291.342857 
L 304.233142 290.314286 
L 305.333914 290.314286 
L 305.884301 291.342857 
L 306.434687 290.314286 
L 308.085846 290.314286 
L 308.636232 291.342857 
L 309.186618 291.342857 
L 309.737005 292.371429 
L 310.287391 291.342857 
L 311.93855 291.342857 
L 312.488936 292.371429 
L 313.039323 291.342857 
L 313.589709 292.371429 
L 314.140095 291.342857 
L 314.690482 292.371429 
L 315.791254 292.371429 
L 316.341641 291.342857 
L 316.892027 292.371429 
L 318.543186 292.371429 
L 319.093572 293.4 
L 319.643959 292.371429 
L 323.496663 292.371429 
L 324.047049 293.4 
L 324.597435 292.371429 
L 325.147822 293.4 
L 325.698208 293.4 
L 326.248594 292.371429 
L 326.798981 292.371429 
L 327.349367 293.4 
L 328.45014 293.4 
L 329.000526 292.371429 
L 329.550912 293.4 
L 330.101299 292.371429 
L 330.651685 293.4 
L 332.85323 293.4 
L 333.403617 292.371429 
L 334.504389 294.428571 
L 335.054776 293.4 
L 336.155548 293.4 
L 336.705935 294.428571 
L 337.256321 293.4 
L 337.806707 294.428571 
L 338.357094 294.428571 
L 338.90748 293.4 
L 339.457866 293.4 
L 340.008253 294.428571 
L 341.659411 294.428571 
L 342.209798 293.4 
L 342.760184 293.4 
L 343.31057 294.428571 
L 344.961729 294.428571 
L 345.512116 293.4 
L 346.062502 293.4 
L 346.612888 294.428571 
L 347.163275 294.428571 
L 347.713661 295.457143 
L 348.264047 294.428571 
L 348.814434 294.428571 
L 349.36482 295.457143 
L 349.915206 295.457143 
L 350.465593 294.428571 
L 353.217524 294.428571 
L 353.767911 295.457143 
L 354.318297 294.428571 
L 355.41907 294.428571 
L 355.969456 296.485714 
L 356.519842 295.457143 
L 357.620615 295.457143 
L 358.171001 294.428571 
L 359.271774 294.428571 
L 359.82216 295.457143 
L 360.922933 295.457143 
L 361.473319 294.428571 
L 362.023705 295.457143 
L 364.225251 295.457143 
L 364.775637 296.485714 
L 365.326023 295.457143 
L 366.977182 295.457143 
L 367.527569 294.428571 
L 368.077955 296.485714 
L 368.628341 295.457143 
L 369.178728 296.485714 
L 369.729114 295.457143 
L 370.2795 296.485714 
L 370.829887 296.485714 
L 371.380273 295.457143 
L 371.930659 296.485714 
L 372.481046 296.485714 
L 373.031432 295.457143 
L 373.581818 297.514286 
L 373.581818 297.514286 
" style="fill:none;stroke:#1f77b4;stroke-linecap:square;"/>
    <defs>
     <path d="M -0 2.12132 
L 2.12132 0 
L 0 -2.12132 
L -2.12132 -0 
z
" id="md6436c619c" style="stroke:#ff0000;stroke-linejoin:miter;"/>
    </defs>
    <g clip-path="url(#p6d1ea14a74)">
     <use style="fill:#1f77b4;stroke:#ff0000;stroke-linejoin:miter;" x="69.218182" xlink:href="#md6436c619c" y="307.8"/>
     <use style="fill:#1f77b4;stroke:#ff0000;stroke-linejoin:miter;" x="80.225908" xlink:href="#md6436c619c" y="276.942857"/>
     <use style="fill:#1f77b4;stroke:#ff0000;stroke-linejoin:miter;" x="91.233635" xlink:href="#md6436c619c" y="234.771429"/>
     <use style="fill:#1f77b4;stroke:#ff0000;stroke-linejoin:miter;" x="102.241361" xlink:href="#md6436c619c" y="175.114286"/>
     <use style="fill:#1f77b4;stroke:#ff0000;stroke-linejoin:miter;" x="113.249088" xlink:href="#md6436c619c" y="117.514286"/>
     <use style="fill:#1f77b4;stroke:#ff0000;stroke-linejoin:miter;" x="124.256814" xlink:href="#md6436c619c" y="80.485714"/>
     <use style="fill:#1f77b4;stroke:#ff0000;stroke-linejoin:miter;" x="135.264541" xlink:href="#md6436c619c" y="63"/>
     <use style="fill:#1f77b4;stroke:#ff0000;stroke-linejoin:miter;" x="146.272267" xlink:href="#md6436c619c" y="110.314286"/>
     <use style="fill:#1f77b4;stroke:#ff0000;stroke-linejoin:miter;" x="157.279993" xlink:href="#md6436c619c" y="192.6"/>
     <use style="fill:#1f77b4;stroke:#ff0000;stroke-linejoin:miter;" x="168.28772" xlink:href="#md6436c619c" y="226.542857"/>
     <use style="fill:#1f77b4;stroke:#ff0000;stroke-linejoin:miter;" x="179.295446" xlink:href="#md6436c619c" y="245.057143"/>
     <use style="fill:#1f77b4;stroke:#ff0000;stroke-linejoin:miter;" x="190.303173" xlink:href="#md6436c619c" y="256.371429"/>
     <use style="fill:#1f77b4;stroke:#ff0000;stroke-linejoin:miter;" x="201.310899" xlink:href="#md6436c619c" y="264.6"/>
     <use style="fill:#1f77b4;stroke:#ff0000;stroke-linejoin:miter;" x="212.318626" xlink:href="#md6436c619c" y="269.742857"/>
     <use style="fill:#1f77b4;stroke:#ff0000;stroke-linejoin:miter;" x="223.326352" xlink:href="#md6436c619c" y="274.885714"/>
     <use style="fill:#1f77b4;stroke:#ff0000;stroke-linejoin:miter;" x="234.334079" xlink:href="#md6436c619c" y="277.971429"/>
     <use style="fill:#1f77b4;stroke:#ff0000;stroke-linejoin:miter;" x="245.341805" xlink:href="#md6436c619c" y="281.057143"/>
     <use style="fill:#1f77b4;stroke:#ff0000;stroke-linejoin:miter;" x="256.349531" xlink:href="#md6436c619c" y="283.114286"/>
     <use style="fill:#1f77b4;stroke:#ff0000;stroke-linejoin:miter;" x="267.357258" xlink:href="#md6436c619c" y="285.171429"/>
     <use style="fill:#1f77b4;stroke:#ff0000;stroke-linejoin:miter;" x="278.364984" xlink:href="#md6436c619c" y="287.228571"/>
     <use style="fill:#1f77b4;stroke:#ff0000;stroke-linejoin:miter;" x="289.372711" xlink:href="#md6436c619c" y="288.257143"/>
     <use style="fill:#1f77b4;stroke:#ff0000;stroke-linejoin:miter;" x="300.380437" xlink:href="#md6436c619c" y="290.314286"/>
     <use style="fill:#1f77b4;stroke:#ff0000;stroke-linejoin:miter;" x="311.388164" xlink:href="#md6436c619c" y="291.342857"/>
     <use style="fill:#1f77b4;stroke:#ff0000;stroke-linejoin:miter;" x="322.39589" xlink:href="#md6436c619c" y="292.371429"/>
     <use style="fill:#1f77b4;stroke:#ff0000;stroke-linejoin:miter;" x="333.403617" xlink:href="#md6436c619c" y="292.371429"/>
     <use style="fill:#1f77b4;stroke:#ff0000;stroke-linejoin:miter;" x="344.411343" xlink:href="#md6436c619c" y="294.428571"/>
     <use style="fill:#1f77b4;stroke:#ff0000;stroke-linejoin:miter;" x="355.41907" xlink:href="#md6436c619c" y="294.428571"/>
     <use style="fill:#1f77b4;stroke:#ff0000;stroke-linejoin:miter;" x="366.426796" xlink:href="#md6436c619c" y="295.457143"/>
    </g>
   </g>
   <g id="patch_3">
    <path d="M 54 320.4 
L 54 43.2 
" style="fill:none;stroke:#000000;stroke-linecap:square;stroke-linejoin:miter;stroke-width:0.8;"/>
   </g>
   <g id="patch_4">
    <path d="M 388.8 320.4 
L 388.8 43.2 
" style="fill:none;stroke:#000000;stroke-linecap:square;stroke-linejoin:miter;stroke-width:0.8;"/>
   </g>
   <g id="patch_5">
    <path d="M 54 320.4 
L 388.8 320.4 
" style="fill:none;stroke:#000000;stroke-linecap:square;stroke-linejoin:miter;stroke-width:0.8;"/>
   </g>
   <g id="patch_6">
    <path d="M 54 43.2 
L 388.8 43.2 
" style="fill:none;stroke:#000000;stroke-linecap:square;stroke-linejoin:miter;stroke-width:0.8;"/>
   </g>
   <g id="text_16">
    <!-- график зарядки и разрядки конденсатора -->
    <g transform="translate(86.248125 37.2)scale(0.12 -0.12)">
     <defs>
      <path d="M 581 0 
L 581 3500 
L 3050 3500 
L 3050 3041 
L 1159 3041 
L 1159 0 
L 581 0 
z
" id="DejaVuSans-433" transform="scale(0.015625)"/>
      <path d="M 1159 525 
L 1159 -1331 
L 581 -1331 
L 581 3500 
L 1159 3500 
L 1159 2969 
Q 1341 3281 1617 3432 
Q 1894 3584 2278 3584 
Q 2916 3584 3314 3078 
Q 3713 2572 3713 1747 
Q 3713 922 3314 415 
Q 2916 -91 2278 -91 
Q 1894 -91 1617 61 
Q 1341 213 1159 525 
z
M 3116 1747 
Q 3116 2381 2855 2742 
Q 2594 3103 2138 3103 
Q 1681 3103 1420 2742 
Q 1159 2381 1159 1747 
Q 1159 1113 1420 752 
Q 1681 391 2138 391 
Q 2594 391 2855 752 
Q 3116 1113 3116 1747 
z
" id="DejaVuSans-440" transform="scale(0.015625)"/>
      <path d="M 2194 1759 
Q 1497 1759 1228 1600 
Q 959 1441 959 1056 
Q 959 750 1161 570 
Q 1363 391 1709 391 
Q 2188 391 2477 730 
Q 2766 1069 2766 1631 
L 2766 1759 
L 2194 1759 
z
M 3341 1997 
L 3341 0 
L 2766 0 
L 2766 531 
Q 2569 213 2275 61 
Q 1981 -91 1556 -91 
Q 1019 -91 701 211 
Q 384 513 384 1019 
Q 384 1609 779 1909 
Q 1175 2209 1959 2209 
L 2766 2209 
L 2766 2266 
Q 2766 2663 2505 2880 
Q 2244 3097 1772 3097 
Q 1472 3097 1187 3025 
Q 903 2953 641 2809 
L 641 3341 
Q 956 3463 1253 3523 
Q 1550 3584 1831 3584 
Q 2591 3584 2966 3190 
Q 3341 2797 3341 1997 
z
" id="DejaVuSans-430" transform="scale(0.015625)"/>
      <path d="M 947 1747 
Q 947 1013 1173 702 
Q 1400 391 1784 391 
Q 2091 391 2447 916 
L 2447 2578 
Q 2091 3103 1784 3103 
Q 1400 3103 1173 2792 
Q 947 2481 947 1747 
z
M 2447 -1331 
L 2447 447 
Q 2269 153 2064 31 
Q 1859 -91 1600 -91 
Q 1078 -91 714 392 
Q 350 875 350 1734 
Q 350 2594 714 3089 
Q 1078 3584 1600 3584 
Q 1859 3584 2064 3465 
Q 2269 3347 2447 3053 
L 2447 4666 
L 3025 4666 
L 3025 3053 
Q 3203 3347 3408 3465 
Q 3613 3584 3872 3584 
Q 4394 3584 4758 3089 
Q 5122 2594 5122 1734 
Q 5122 875 4758 392 
Q 4394 -91 3872 -91 
Q 3613 -91 3408 31 
Q 3203 153 3025 447 
L 3025 -1331 
L 2447 -1331 
z
M 4525 1747 
Q 4525 2481 4298 2792 
Q 4072 3103 3688 3103 
Q 3381 3103 3025 2578 
L 3025 916 
Q 3381 391 3688 391 
Q 4072 391 4298 702 
Q 4525 1013 4525 1747 
z
" id="DejaVuSans-444" transform="scale(0.015625)"/>
      <path d="M 3578 3500 
L 3578 0 
L 3006 0 
L 3006 2809 
L 1319 0 
L 581 0 
L 581 3500 
L 1153 3500 
L 1153 697 
L 2838 3500 
L 3578 3500 
z
" id="DejaVuSans-438" transform="scale(0.015625)"/>
      <path d="M 581 3500 
L 1153 3500 
L 1153 1856 
L 2775 3500 
L 3481 3500 
L 2144 2147 
L 3653 0 
L 3009 0 
L 1769 1766 
L 1153 1141 
L 1153 0 
L 581 0 
L 581 3500 
z
" id="DejaVuSans-43a" transform="scale(0.015625)"/>
      <path d="M 2206 1888 
Q 2594 1813 2809 1584 
Q 3025 1356 3025 1019 
Q 3025 478 2622 193 
Q 2219 -91 1475 -91 
Q 1225 -91 961 -47 
Q 697 -3 416 84 
L 416 619 
Q 638 503 903 445 
Q 1169 388 1459 388 
Q 1931 388 2195 563 
Q 2459 738 2459 1019 
Q 2459 1294 2225 1461 
Q 1991 1628 1563 1628 
L 1100 1628 
L 1100 2103 
L 1584 2103 
Q 1947 2103 2158 2242 
Q 2369 2381 2369 2600 
Q 2369 2800 2151 2944 
Q 1934 3088 1563 3088 
Q 1341 3088 1089 3047 
Q 838 3006 534 2916 
L 534 3438 
Q 841 3513 1106 3550 
Q 1372 3588 1609 3588 
Q 2222 3588 2576 3342 
Q 2931 3097 2931 2656 
Q 2931 2366 2743 2164 
Q 2556 1963 2206 1888 
z
" id="DejaVuSans-437" transform="scale(0.015625)"/>
      <path d="M 1181 2491 
Q 1181 2231 1381 2084 
Q 1581 1938 1953 1938 
L 2728 1938 
L 2728 3041 
L 1953 3041 
Q 1581 3041 1381 2897 
Q 1181 2753 1181 2491 
z
M 363 0 
L 1431 1534 
Q 1069 1616 828 1830 
Q 588 2044 588 2491 
Q 588 2997 923 3248 
Q 1259 3500 1938 3500 
L 3306 3500 
L 3306 0 
L 2728 0 
L 2728 1478 
L 2013 1478 
L 981 0 
L 363 0 
z
" id="DejaVuSans-44f" transform="scale(0.015625)"/>
      <path d="M 1384 459 
L 3053 459 
L 3053 3041 
L 1844 3041 
L 1844 2603 
Q 1844 1316 1475 628 
L 1384 459 
z
M 550 459 
Q 834 584 959 850 
Q 1266 1509 1266 2838 
L 1266 3500 
L 3631 3500 
L 3631 459 
L 4091 459 
L 4091 -884 
L 3631 -884 
L 3631 0 
L 794 0 
L 794 -884 
L 334 -884 
L 334 459 
L 550 459 
z
" id="DejaVuSans-434" transform="scale(0.015625)"/>
      <path d="M 1959 3097 
Q 1497 3097 1228 2736 
Q 959 2375 959 1747 
Q 959 1119 1226 758 
Q 1494 397 1959 397 
Q 2419 397 2687 759 
Q 2956 1122 2956 1747 
Q 2956 2369 2687 2733 
Q 2419 3097 1959 3097 
z
M 1959 3584 
Q 2709 3584 3137 3096 
Q 3566 2609 3566 1747 
Q 3566 888 3137 398 
Q 2709 -91 1959 -91 
Q 1206 -91 779 398 
Q 353 888 353 1747 
Q 353 2609 779 3096 
Q 1206 3584 1959 3584 
z
" id="DejaVuSans-43e" transform="scale(0.015625)"/>
      <path d="M 581 3500 
L 1159 3500 
L 1159 2072 
L 3025 2072 
L 3025 3500 
L 3603 3500 
L 3603 0 
L 3025 0 
L 3025 1613 
L 1159 1613 
L 1159 0 
L 581 0 
L 581 3500 
z
" id="DejaVuSans-43d" transform="scale(0.015625)"/>
      <path d="M 3597 1894 
L 3597 1613 
L 953 1613 
Q 991 1019 1311 708 
Q 1631 397 2203 397 
Q 2534 397 2845 478 
Q 3156 559 3463 722 
L 3463 178 
Q 3153 47 2828 -22 
Q 2503 -91 2169 -91 
Q 1331 -91 842 396 
Q 353 884 353 1716 
Q 353 2575 817 3079 
Q 1281 3584 2069 3584 
Q 2775 3584 3186 3129 
Q 3597 2675 3597 1894 
z
M 3022 2063 
Q 3016 2534 2758 2815 
Q 2500 3097 2075 3097 
Q 1594 3097 1305 2825 
Q 1016 2553 972 2059 
L 3022 2063 
z
" id="DejaVuSans-435" transform="scale(0.015625)"/>
      <path d="M 3122 3366 
L 3122 2828 
Q 2878 2963 2633 3030 
Q 2388 3097 2138 3097 
Q 1578 3097 1268 2742 
Q 959 2388 959 1747 
Q 959 1106 1268 751 
Q 1578 397 2138 397 
Q 2388 397 2633 464 
Q 2878 531 3122 666 
L 3122 134 
Q 2881 22 2623 -34 
Q 2366 -91 2075 -91 
Q 1284 -91 818 406 
Q 353 903 353 1747 
Q 353 2603 823 3093 
Q 1294 3584 2113 3584 
Q 2378 3584 2631 3529 
Q 2884 3475 3122 3366 
z
" id="DejaVuSans-441" transform="scale(0.015625)"/>
      <path d="M 188 3500 
L 3541 3500 
L 3541 3041 
L 2147 3041 
L 2147 0 
L 1581 0 
L 1581 3041 
L 188 3041 
L 188 3500 
z
" id="DejaVuSans-442" transform="scale(0.015625)"/>
     </defs>
     <use xlink:href="#DejaVuSans-433"/>
     <use x="52.539062" xlink:href="#DejaVuSans-440"/>
     <use x="116.015625" xlink:href="#DejaVuSans-430"/>
     <use x="177.294922" xlink:href="#DejaVuSans-444"/>
     <use x="262.792969" xlink:href="#DejaVuSans-438"/>
     <use x="327.783203" xlink:href="#DejaVuSans-43a"/>
     <use x="388.183594" xlink:href="#DejaVuSans-20"/>
     <use x="419.970703" xlink:href="#DejaVuSans-437"/>
     <use x="473.144531" xlink:href="#DejaVuSans-430"/>
     <use x="534.423828" xlink:href="#DejaVuSans-440"/>
     <use x="597.900391" xlink:href="#DejaVuSans-44f"/>
     <use x="658.056641" xlink:href="#DejaVuSans-434"/>
     <use x="727.197266" xlink:href="#DejaVuSans-43a"/>
     <use x="787.597656" xlink:href="#DejaVuSans-438"/>
     <use x="852.587891" xlink:href="#DejaVuSans-20"/>
     <use x="884.375" xlink:href="#DejaVuSans-438"/>
     <use x="949.365234" xlink:href="#DejaVuSans-20"/>
     <use x="981.152344" xlink:href="#DejaVuSans-440"/>
     <use x="1044.628906" xlink:href="#DejaVuSans-430"/>
     <use x="1105.908203" xlink:href="#DejaVuSans-437"/>
     <use x="1159.082031" xlink:href="#DejaVuSans-440"/>
     <use x="1222.558594" xlink:href="#DejaVuSans-44f"/>
     <use x="1282.714844" xlink:href="#DejaVuSans-434"/>
     <use x="1351.855469" xlink:href="#DejaVuSans-43a"/>
     <use x="1412.255859" xlink:href="#DejaVuSans-438"/>
     <use x="1477.246094" xlink:href="#DejaVuSans-20"/>
     <use x="1509.033203" xlink:href="#DejaVuSans-43a"/>
     <use x="1569.433594" xlink:href="#DejaVuSans-43e"/>
     <use x="1630.615234" xlink:href="#DejaVuSans-43d"/>
     <use x="1695.996094" xlink:href="#DejaVuSans-434"/>
     <use x="1765.136719" xlink:href="#DejaVuSans-435"/>
     <use x="1826.660156" xlink:href="#DejaVuSans-43d"/>
     <use x="1892.041016" xlink:href="#DejaVuSans-441"/>
     <use x="1947.021484" xlink:href="#DejaVuSans-430"/>
     <use x="2008.300781" xlink:href="#DejaVuSans-442"/>
     <use x="2066.552734" xlink:href="#DejaVuSans-43e"/>
     <use x="2127.734375" xlink:href="#DejaVuSans-440"/>
     <use x="2191.210938" xlink:href="#DejaVuSans-430"/>
    </g>
   </g>
   <g id="legend_1">
    <g id="patch_7">
     <path d="M 330.757812 65.878125 
L 381.8 65.878125 
Q 383.8 65.878125 383.8 63.878125 
L 383.8 50.2 
Q 383.8 48.2 381.8 48.2 
L 330.757812 48.2 
Q 328.757812 48.2 328.757812 50.2 
L 328.757812 63.878125 
Q 328.757812 65.878125 330.757812 65.878125 
z
" style="fill:#ffffff;opacity:0.8;stroke:#cccccc;stroke-linejoin:miter;"/>
    </g>
    <g id="line2d_114">
     <path d="M 332.757812 56.298437 
L 352.757812 56.298437 
" style="fill:none;stroke:#1f77b4;stroke-linecap:square;"/>
    </g>
    <g id="line2d_115">
     <g>
      <use style="fill:#1f77b4;stroke:#ff0000;stroke-linejoin:miter;" x="342.757812" xlink:href="#md6436c619c" y="56.298437"/>
     </g>
    </g>
    <g id="text_17">
     <!-- U(t) -->
     <g transform="translate(360.757812 59.798437)scale(0.1 -0.1)">
      <defs>
       <path d="M 1984 4856 
Q 1566 4138 1362 3434 
Q 1159 2731 1159 2009 
Q 1159 1288 1364 580 
Q 1569 -128 1984 -844 
L 1484 -844 
Q 1016 -109 783 600 
Q 550 1309 550 2009 
Q 550 2706 781 3412 
Q 1013 4119 1484 4856 
L 1984 4856 
z
" id="DejaVuSans-28" transform="scale(0.015625)"/>
       <path d="M 513 4856 
L 1013 4856 
Q 1481 4119 1714 3412 
Q 1947 2706 1947 2009 
Q 1947 1309 1714 600 
Q 1481 -109 1013 -844 
L 513 -844 
Q 928 -128 1133 580 
Q 1338 1288 1338 2009 
Q 1338 2731 1133 3434 
Q 928 4138 513 4856 
z
" id="DejaVuSans-29" transform="scale(0.015625)"/>
      </defs>
      <use xlink:href="#DejaVuSans-55"/>
      <use x="73.193359" xlink:href="#DejaVuSans-28"/>
      <use x="112.207031" xlink:href="#DejaVuSans-74"/>
      <use x="151.416016" xlink:href="#DejaVuSans-29"/>
     </g>
    </g>
   </g>
  </g>
 </g>
 <defs>
  <clipPath id="p6d1ea14a74">
   <rect height="277.2" width="334.8" x="54" y="43.2"/>
  </clipPath>
 </defs>
</svg>
